<svg xmlns="http://www.w3.org/2000/svg" viewBox="0 0 1120 430" role="img">
  <defs>
    <style>.t{font:600 17px Arial,sans-serif;fill:#1c2521}.s{font:13px Arial,sans-serif;fill:#657069}.box{fill:#f4f0e8;stroke:#c9c5b9;stroke-width:1.5}.line{stroke:#657069;stroke-width:2;fill:none}</style>
    <marker id="a" markerWidth="8" markerHeight="8" refX="7" refY="4" orient="auto"><path d="M0 0L8 4L0 8Z" fill="#657069"/></marker>
  </defs>
  <rect width="1120" height="430" rx="20" fill="#fffdf8"/>
  <text x="50" y="52" class="s">REAL-TIME VIDEO INTELLIGENCE PLATFORM</text>
  <g transform="translate(50 100)"><rect class="box" width="170" height="230" rx="10"/><text x="22" y="36" class="t">Inputs</text><text x="22" y="72" class="s">RTMP streams</text><text x="22" y="101" class="s">Video files</text><text x="22" y="130" class="s">RGB + infrared</text><text x="22" y="159" class="s">Robots + drones</text><circle cx="85" cy="198" r="12" fill="#6d8170"/></g>
  <path d="M230 215H285" class="line" marker-end="url(#a)"/>
  <g transform="translate(295 100)"><rect class="box" width="205" height="230" rx="10"/><text x="22" y="36" class="t">Streaming</text><text x="22" y="72" class="s">GStreamer</text><text x="22" y="101" class="s">Decode + alignment</text><text x="22" y="130" class="s">Backpressure</text><path d="M25 183c35-35 70 35 105 0s55 0 55 0" class="line"/></g>
  <path d="M510 215H565" class="line" marker-end="url(#a)"/>
  <g transform="translate(575 100)"><rect class="box" width="205" height="230" rx="10"/><text x="22" y="36" class="t">GPU + events</text><text x="22" y="72" class="s">Model instance pool</text><text x="22" y="101" class="s">Batched inference</text><text x="22" y="130" class="s">Tracking</text><text x="22" y="159" class="s">Temporal rules</text><rect x="23" y="184" width="160" height="20" rx="10" fill="#6d8170" opacity=".25"/><rect x="23" y="184" width="125" height="20" rx="10" fill="#6d8170"/></g>
  <path d="M790 215H845" class="line" marker-end="url(#a)"/>
  <g transform="translate(855 100)"><rect class="box" width="215" height="230" rx="10"/><text x="22" y="36" class="t">Operations</text><text x="22" y="72" class="s">Live results</text><text x="22" y="101" class="s">Event evidence</text><text x="22" y="130" class="s">Task persistence</text><text x="22" y="159" class="s">Review + export</text><rect x="23" y="184" width="58" height="24" rx="4" fill="#6d8170"/><rect x="89" y="184" width="104" height="24" rx="4" fill="#ebe4d8"/></g>
  <text x="560" y="390" text-anchor="middle" class="s">Dockerized for internal and offline customer-site deployment</text>
</svg>
