ISO-10303-21;
HEADER;
FILE_DESCRIPTION(('ViewDefinition [CoordinationView]'),'2;1');
FILE_NAME('','2026-06-18T21:26:47',(''),(''),'IfcOpenShell 0.8.5-1c5b825','IfcOpenShell 0.8.5-1c5b825','');
FILE_SCHEMA(('IFC4'));
ENDSEC;
DATA;
#1=IFCSIUNIT(*,.LENGTHUNIT.,$,.METRE.);
#2=IFCUNITASSIGNMENT((#1));
#3=IFCCARTESIANPOINT((0.,0.,0.));
#4=IFCAXIS2PLACEMENT3D(#3,$,$);
#5=IFCGEOMETRICREPRESENTATIONCONTEXT('Model','Model',3,1.0000000000000001E-05,#4,$);
#6=IFCPROJECT('1$EugQdG1BchyyKfS9jK7d',$,'Reconstructed Floor Plan',$,$,$,$,(#5),#2);
#7=IFCCARTESIANPOINT((0.,0.,0.));
#8=IFCAXIS2PLACEMENT3D(#7,$,$);
#9=IFCLOCALPLACEMENT($,#8);
#10=IFCSITE('3eSy3wl718Ifp7QE1EYmBS',$,'Synthetic Site',$,$,#9,$,$,$,$,$,$,$,$);
#11=IFCCARTESIANPOINT((0.,0.,0.));
#12=IFCAXIS2PLACEMENT3D(#11,$,$);
#13=IFCLOCALPLACEMENT($,#12);
#14=IFCBUILDING('2VgcoMALD0dQoOi6UU_Z83',$,'Reconstructed Building',$,$,#13,$,$,$,$,$,$);
#15=IFCCARTESIANPOINT((0.,0.,0.));
#16=IFCAXIS2PLACEMENT3D(#15,$,$);
#17=IFCLOCALPLACEMENT($,#16);
#18=IFCBUILDINGSTOREY('1aYj6phHv3LQCIDzUI3cvN',$,'Level 1',$,$,#17,$,$,$,0.);
#19=IFCRELAGGREGATES('1Y845K2pTCrft07zs8dv7Q',$,$,$,#6,(#10));
#20=IFCRELAGGREGATES('1NyzQwgbT7w9VJLLi8foJW',$,$,$,#10,(#14));
#21=IFCRELAGGREGATES('2nzpDBq7z7y8Bp1TMeVzln',$,$,$,#14,(#18));
#22=IFCCOLOURRGB('Wall warm white',0.81999999999999995,0.81999999999999995,0.76000000000000001);
#23=IFCSURFACESTYLERENDERING(#22,0.,$,$,$,$,$,$,$);
#24=IFCSURFACESTYLE('Wall warm white',.BOTH.,(#23));
#25=IFCPRESENTATIONSTYLEASSIGNMENT((#24));
#26=IFCCOLOURRGB('Door magenta',0.73999999999999999,0.17999999999999999,0.5);
#27=IFCSURFACESTYLERENDERING(#26,0.,$,$,$,$,$,$,$);
#28=IFCSURFACESTYLE('Door magenta',.BOTH.,(#27));
#29=IFCPRESENTATIONSTYLEASSIGNMENT((#28));
#30=IFCCOLOURRGB('Window glass green',0.28000000000000003,0.85999999999999999,0.56999999999999995);
#31=IFCSURFACESTYLERENDERING(#30,0.45000000000000001,$,$,$,$,$,$,$);
#32=IFCSURFACESTYLE('Window glass green',.BOTH.,(#31));
#33=IFCPRESENTATIONSTYLEASSIGNMENT((#32));
#34=IFCCOLOURRGB('Room slab neutral',0.80000000000000004,0.20000000000000001,0.20000000000000001);
#35=IFCSURFACESTYLERENDERING(#34,0.,$,$,$,$,$,$,$);
#36=IFCSURFACESTYLE('Room slab neutral',.BOTH.,(#35));
#37=IFCPRESENTATIONSTYLEASSIGNMENT((#36));
#38=IFCCOLOURRGB('Room slab 1 RED',1.,0.,0.);
#39=IFCSURFACESTYLERENDERING(#38,0.,$,$,$,$,$,$,$);
#40=IFCSURFACESTYLE('Room slab 1 RED',.BOTH.,(#39));
#41=IFCPRESENTATIONSTYLEASSIGNMENT((#40));
#42=IFCCOLOURRGB('Room slab 2 GREEN',0.,1.,0.);
#43=IFCSURFACESTYLERENDERING(#42,0.,$,$,$,$,$,$,$);
#44=IFCSURFACESTYLE('Room slab 2 GREEN',.BOTH.,(#43));
#45=IFCPRESENTATIONSTYLEASSIGNMENT((#44));
#46=IFCCOLOURRGB('Room slab 3 BLUE',0.,0.,1.);
#47=IFCSURFACESTYLERENDERING(#46,0.,$,$,$,$,$,$,$);
#48=IFCSURFACESTYLE('Room slab 3 BLUE',.BOTH.,(#47));
#49=IFCPRESENTATIONSTYLEASSIGNMENT((#48));
#50=IFCCOLOURRGB('Room slab 4 YELLOW',1.,1.,0.);
#51=IFCSURFACESTYLERENDERING(#50,0.,$,$,$,$,$,$,$);
#52=IFCSURFACESTYLE('Room slab 4 YELLOW',.BOTH.,(#51));
#53=IFCPRESENTATIONSTYLEASSIGNMENT((#52));
#54=IFCCOLOURRGB('Room slab 5 CYAN',0.,1.,1.);
#55=IFCSURFACESTYLERENDERING(#54,0.,$,$,$,$,$,$,$);
#56=IFCSURFACESTYLE('Room slab 5 CYAN',.BOTH.,(#55));
#57=IFCPRESENTATIONSTYLEASSIGNMENT((#56));
#58=IFCCOLOURRGB('Room slab 6 MAGENTA',1.,0.,1.);
#59=IFCSURFACESTYLERENDERING(#58,0.,$,$,$,$,$,$,$);
#60=IFCSURFACESTYLE('Room slab 6 MAGENTA',.BOTH.,(#59));
#61=IFCPRESENTATIONSTYLEASSIGNMENT((#60));
#62=IFCCOLOURRGB('Room slab 7 ORANGE',0.,1.,0.);
#63=IFCSURFACESTYLERENDERING(#62,0.,$,$,$,$,$,$,$);
#64=IFCSURFACESTYLE('Room slab 7 ORANGE',.BOTH.,(#63));
#65=IFCPRESENTATIONSTYLEASSIGNMENT((#64));
#66=IFCCOLOURRGB('Room slab extra',0.5,0.5,0.5);
#67=IFCSURFACESTYLERENDERING(#66,0.,$,$,$,$,$,$,$);
#68=IFCSURFACESTYLE('Room slab extra',.BOTH.,(#67));
#69=IFCPRESENTATIONSTYLEASSIGNMENT((#68));
#70=IFCCARTESIANPOINT((8.8500117199999995,-1.4925999999999999));
#71=IFCCARTESIANPOINT((5.6806599999999996,-1.4925999999999999));
#72=IFCCARTESIANPOINT((5.6806599999999996,-2.5988799999999999));
#73=IFCCARTESIANPOINT((7.2219714399999999,-2.5988799999999999));
#74=IFCCARTESIANPOINT((7.2171599999999998,-2.7481399999999998));
#75=IFCCARTESIANPOINT((8.8500117199999995,-2.7832599999999998));
#76=IFCCARTESIANPOINT((8.8500117199999995,-1.4925999999999999));
#77=IFCPOLYLINE((#70,#71,#72,#73,#74,#75,#76));
#78=IFCARBITRARYCLOSEDPROFILEDEF(.AREA.,$,#77);
#79=IFCDIRECTION((0.,0.,1.));
#80=IFCCARTESIANPOINT((0.,0.,-0.20000000000000001));
#81=IFCAXIS2PLACEMENT3D(#80,#79,$);
#82=IFCEXTRUDEDAREASOLID(#78,#81,#79,0.20000000000000001);
#83=IFCSTYLEDITEM(#82,(#41),'Room slab 1');
#84=IFCSHAPEREPRESENTATION(#5,'Body','SweptSolid',(#82));
#85=IFCPRODUCTDEFINITIONSHAPE($,$,(#84));
#86=IFCCARTESIANPOINT((0.,0.,0.));
#87=IFCAXIS2PLACEMENT3D(#86,$,$);
#88=IFCLOCALPLACEMENT($,#87);
#89=IFCSLAB('0wXe0tfjr6sgUzQ45Iaja7',$,'Room slab 1',$,$,#88,#85,$,$);
#90=IFCRELCONTAINEDINSPATIALSTRUCTURE('0Uh3jew5X2lAgTIZTpZ7uW',$,$,$,(#89),#18);
#91=IFCCARTESIANPOINT((6.0228165999999996,-6.6815799999999994));
#92=IFCCARTESIANPOINT((5.0660599999999993,-6.6991399999999999));
#93=IFCCARTESIANPOINT((5.0836199999999998,-8.9852412799999986));
#94=IFCCARTESIANPOINT((5.5138400000000001,-8.9819399999999998));
#95=IFCCARTESIANPOINT((5.5138400000000001,-9.5877599999999994));
#96=IFCCARTESIANPOINT((6.6376799999999996,-9.5877599999999994));
#97=IFCCARTESIANPOINT((6.6376799999999996,-8.9907199999999996));
#98=IFCCARTESIANPOINT((6.9537599999999999,-8.9907199999999996));
#99=IFCCARTESIANPOINT((6.9537599999999999,-8.5956200000000003));
#100=IFCCARTESIANPOINT((7.1381399999999999,-8.5956200000000003));
#101=IFCCARTESIANPOINT((7.1381399999999999,-6.7254800000000001));
#102=IFCCARTESIANPOINT((6.9635233599999991,-6.7254800000000001));
#103=IFCCARTESIANPOINT((6.9625399999999997,-6.8220599999999996));
#104=IFCCARTESIANPOINT((6.03186,-6.8220599999999996));
#105=IFCCARTESIANPOINT((6.0228165999999996,-6.6815799999999994));
#106=IFCPOLYLINE((#91,#92,#93,#94,#95,#96,#97,#98,#99,#100,#101,#102,#103,#104,#105));
#107=IFCARBITRARYCLOSEDPROFILEDEF(.AREA.,$,#106);
#108=IFCDIRECTION((0.,0.,1.));
#109=IFCCARTESIANPOINT((0.,0.,-0.20000000000000001));
#110=IFCAXIS2PLACEMENT3D(#109,#108,$);
#111=IFCEXTRUDEDAREASOLID(#107,#110,#108,0.20000000000000001);
#112=IFCSTYLEDITEM(#111,(#45),'Room slab 2');
#113=IFCSHAPEREPRESENTATION(#5,'Body','SweptSolid',(#111));
#114=IFCPRODUCTDEFINITIONSHAPE($,$,(#113));
#115=IFCCARTESIANPOINT((0.,0.,0.));
#116=IFCAXIS2PLACEMENT3D(#115,$,$);
#117=IFCLOCALPLACEMENT($,#116);
#118=IFCSLAB('0UANkYbYj2BuCfPb0YSx5w',$,'Room slab 2',$,$,#117,#114,$,$);
#119=IFCRELCONTAINEDINSPATIALSTRUCTURE('3blfXfy5P2D9BIVj$DvFAY',$,$,$,(#118),#18);
#120=IFCCARTESIANPOINT((6.3128199999999994,-5.6455399999999996));
#121=IFCCARTESIANPOINT((6.3128199999999994,-3.64391072));
#122=IFCCARTESIANPOINT((4.3719483199999996,-3.64391072));
#123=IFCCARTESIANPOINT((4.3724400000000001,-3.7554694));
#124=IFCCARTESIANPOINT((2.1862200000000001,-3.7666199999999996));
#125=IFCCARTESIANPOINT((2.1744372399999996,-5.6455399999999996));
#126=IFCCARTESIANPOINT((6.3128199999999994,-5.6455399999999996));
#127=IFCPOLYLINE((#120,#121,#122,#123,#124,#125,#126));
#128=IFCARBITRARYCLOSEDPROFILEDEF(.AREA.,$,#127);
#129=IFCDIRECTION((0.,0.,1.));
#130=IFCCARTESIANPOINT((0.,0.,-0.20000000000000001));
#131=IFCAXIS2PLACEMENT3D(#130,#129,$);
#132=IFCEXTRUDEDAREASOLID(#128,#131,#129,0.20000000000000001);
#133=IFCSTYLEDITEM(#132,(#49),'Room slab 3');
#134=IFCSHAPEREPRESENTATION(#5,'Body','SweptSolid',(#132));
#135=IFCPRODUCTDEFINITIONSHAPE($,$,(#134));
#136=IFCCARTESIANPOINT((0.,0.,0.));
#137=IFCAXIS2PLACEMENT3D(#136,$,$);
#138=IFCLOCALPLACEMENT($,#137);
#139=IFCSLAB('1cxgFRNhv1zQfJ3jtY8r1P',$,'Room slab 3',$,$,#138,#135,$,$);
#140=IFCRELCONTAINEDINSPATIALSTRUCTURE('14TeHy_zb7vvlEBiK1fU0k',$,$,$,(#139),#18);
#141=IFCCARTESIANPOINT((7.6113819999999999,-3.58550616));
#142=IFCCARTESIANPOINT((7.2140343199999997,-3.5856817599999999));
#143=IFCCARTESIANPOINT((7.2140343199999997,-3.8456399999999999));
#144=IFCCARTESIANPOINT((6.46132492,-3.8459560799999997));
#145=IFCCARTESIANPOINT((6.4620799999999994,-5.6455399999999996));
#146=IFCCARTESIANPOINT((7.61226,-5.6455399999999996));
#147=IFCCARTESIANPOINT((7.6113819999999999,-3.58550616));
#148=IFCPOLYLINE((#141,#142,#143,#144,#145,#146,#147));
#149=IFCARBITRARYCLOSEDPROFILEDEF(.AREA.,$,#148);
#150=IFCDIRECTION((0.,0.,1.));
#151=IFCCARTESIANPOINT((0.,0.,-0.20000000000000001));
#152=IFCAXIS2PLACEMENT3D(#151,#150,$);
#153=IFCEXTRUDEDAREASOLID(#149,#152,#150,0.20000000000000001);
#154=IFCSTYLEDITEM(#153,(#53),'Room slab 4');
#155=IFCSHAPEREPRESENTATION(#5,'Body','SweptSolid',(#153));
#156=IFCPRODUCTDEFINITIONSHAPE($,$,(#155));
#157=IFCCARTESIANPOINT((0.,0.,0.));
#158=IFCAXIS2PLACEMENT3D(#157,$,$);
#159=IFCLOCALPLACEMENT($,#158);
#160=IFCSLAB('1e89aWAPf0UxSZfInk16a9',$,'Room slab 4',$,$,#159,#156,$,$);
#161=IFCRELCONTAINEDINSPATIALSTRUCTURE('0Y6EKxoDv2SB3yAn5N4oUn',$,$,$,(#160),#18);
#162=IFCCARTESIANPOINT((7.0503399999999994,-3.71394));
#163=IFCCARTESIANPOINT((7.0630885599999997,-2.7305799999999998));
#164=IFCCARTESIANPOINT((5.6910028399999995,-2.7127917199999998));
#165=IFCCARTESIANPOINT((5.6805195199999998,-3.5281903199999998));
#166=IFCCARTESIANPOINT((6.4691215599999996,-3.53832244));
#167=IFCCARTESIANPOINT((6.4665753599999993,-3.71394));
#168=IFCCARTESIANPOINT((7.0503399999999994,-3.71394));
#169=IFCPOLYLINE((#162,#163,#164,#165,#166,#167,#168));
#170=IFCARBITRARYCLOSEDPROFILEDEF(.AREA.,$,#169);
#171=IFCDIRECTION((0.,0.,1.));
#172=IFCCARTESIANPOINT((0.,0.,-0.20000000000000001));
#173=IFCAXIS2PLACEMENT3D(#172,#171,$);
#174=IFCEXTRUDEDAREASOLID(#170,#173,#171,0.20000000000000001);
#175=IFCSTYLEDITEM(#174,(#57),'Room slab 5');
#176=IFCSHAPEREPRESENTATION(#5,'Body','SweptSolid',(#174));
#177=IFCPRODUCTDEFINITIONSHAPE($,$,(#176));
#178=IFCCARTESIANPOINT((0.,0.,0.));
#179=IFCAXIS2PLACEMENT3D(#178,$,$);
#180=IFCLOCALPLACEMENT($,#179);
#181=IFCSLAB('1r8dTCQ5DCtOHIq19tQ2AF',$,'Room slab 5',$,$,#180,#177,$,$);
#182=IFCRELCONTAINEDINSPATIALSTRUCTURE('1AcMqojAD7ZPbTN3Lo1NfU',$,$,$,(#181),#18);
#183=IFCCARTESIANPOINT((10.189523639999999,-8.6172363599999997));
#184=IFCCARTESIANPOINT((10.29894,-8.6166919999999987));
#185=IFCCARTESIANPOINT((10.246259999999999,-1.48331076));
#186=IFCCARTESIANPOINT((8.9907199999999996,-1.4925824399999998));
#187=IFCCARTESIANPOINT((8.9907199999999996,-2.8447199999999997));
#188=IFCCARTESIANPOINT((7.2171599999999998,-2.8447199999999997));
#189=IFCCARTESIANPOINT((7.2171599999999998,-3.47900476));
#190=IFCCARTESIANPOINT((7.7527399999999993,-3.4680999999999997));
#191=IFCCARTESIANPOINT((7.7878599999999993,-5.7430155599999999));
#192=IFCCARTESIANPOINT((5.0133799999999997,-5.7858444000000002));
#193=IFCCARTESIANPOINT((5.0254788399999999,-6.5411000000000001));
#194=IFCCARTESIANPOINT((7.2610599999999996,-6.5692311199999995));
#195=IFCCARTESIANPOINT((7.2489611599999995,-10.7555));
#196=IFCCARTESIANPOINT((10.285383679999999,-10.764279999999999));
#197=IFCCARTESIANPOINT((10.29016,-9.1139209599999997));
#198=IFCCARTESIANPOINT((10.191964479999999,-9.1136400000000002));
#199=IFCCARTESIANPOINT((10.189523639999999,-8.6172363599999997));
#200=IFCPOLYLINE((#183,#184,#185,#186,#187,#188,#189,#190,#191,#192,#193,#194,#195,#196,#197,#198,#199));
#201=IFCARBITRARYCLOSEDPROFILEDEF(.AREA.,$,#200);
#202=IFCDIRECTION((0.,0.,1.));
#203=IFCCARTESIANPOINT((0.,0.,-0.20000000000000001));
#204=IFCAXIS2PLACEMENT3D(#203,#202,$);
#205=IFCEXTRUDEDAREASOLID(#201,#204,#202,0.20000000000000001);
#206=IFCSTYLEDITEM(#205,(#61),'Room slab 6');
#207=IFCSHAPEREPRESENTATION(#5,'Body','SweptSolid',(#205));
#208=IFCPRODUCTDEFINITIONSHAPE($,$,(#207));
#209=IFCCARTESIANPOINT((0.,0.,0.));
#210=IFCAXIS2PLACEMENT3D(#209,$,$);
#211=IFCLOCALPLACEMENT($,#210);
#212=IFCSLAB('32Dw57SmXErRED9RwM4gr5',$,'Room slab 6',$,$,#211,#208,$,$);
#213=IFCRELCONTAINEDINSPATIALSTRUCTURE('1koJ4vxpX5JxlMliEj07$c',$,$,$,(#212),#18);
#214=IFCCARTESIANPOINT((4.9431399999999996,-5.7860199999999997));
#215=IFCCARTESIANPOINT((2.1862200000000001,-5.7860199999999997));
#216=IFCCARTESIANPOINT((2.1862200000000001,-9.824819999999999));
#217=IFCCARTESIANPOINT((4.9431399999999996,-9.824819999999999));
#218=IFCCARTESIANPOINT((4.9431399999999996,-5.7860199999999997));
#219=IFCPOLYLINE((#214,#215,#216,#217,#218));
#220=IFCARBITRARYCLOSEDPROFILEDEF(.AREA.,$,#219);
#221=IFCDIRECTION((0.,0.,1.));
#222=IFCCARTESIANPOINT((0.,0.,-0.20000000000000001));
#223=IFCAXIS2PLACEMENT3D(#222,#221,$);
#224=IFCEXTRUDEDAREASOLID(#220,#223,#221,0.20000000000000001);
#225=IFCSTYLEDITEM(#224,(#65),'Room slab 7');
#226=IFCSHAPEREPRESENTATION(#5,'Body','SweptSolid',(#224));
#227=IFCPRODUCTDEFINITIONSHAPE($,$,(#226));
#228=IFCCARTESIANPOINT((0.,0.,0.));
#229=IFCAXIS2PLACEMENT3D(#228,$,$);
#230=IFCLOCALPLACEMENT($,#229);
#231=IFCSLAB('3ug71euoDAkO9z8OW2IrVo',$,'Room slab 7',$,$,#230,#227,$,$);
#232=IFCRELCONTAINEDINSPATIALSTRUCTURE('093I4CgWD3Mh28WYz7DBVx',$,$,$,(#231),#18);
#233=IFCCARTESIANPOINT((8.9204799999999995,-1.3169999999999999));
#234=IFCCARTESIANPOINT((5.5840800000000002,-1.3169999999999999));
#235=IFCCARTESIANPOINT((5.5840800000000002,-1.4574799999999999));
#236=IFCCARTESIANPOINT((8.9204799999999995,-1.4574799999999999));
#237=IFCCARTESIANPOINT((8.9204799999999995,-1.3169999999999999));
#238=IFCPOLYLINE((#233,#234,#235,#236,#237));
#239=IFCARBITRARYCLOSEDPROFILEDEF(.AREA.,$,#238);
#240=IFCDIRECTION((0.,0.,1.));
#241=IFCCARTESIANPOINT((0.,0.,0.));
#242=IFCAXIS2PLACEMENT3D(#241,#240,$);
#243=IFCEXTRUDEDAREASOLID(#239,#242,#240,3.);
#244=IFCSTYLEDITEM(#243,(#25),'Wall 1.1');
#245=IFCSHAPEREPRESENTATION(#5,'Body','SweptSolid',(#243));
#246=IFCPRODUCTDEFINITIONSHAPE($,$,(#245));
#247=IFCCARTESIANPOINT((0.,0.,0.));
#248=IFCAXIS2PLACEMENT3D(#247,$,$);
#249=IFCLOCALPLACEMENT($,#248);
#250=IFCWALL('3d4d0FGon68uXx67McLY4P',$,'Wall 1.1',$,$,#249,#246,$,$);
#251=IFCRELCONTAINEDINSPATIALSTRUCTURE('0srto2AYbEtAeBs8ZRWMYQ',$,$,$,(#250),#18);
#252=IFCCARTESIANPOINT((8.8502399999999994,-1.38724));
#253=IFCCARTESIANPOINT((8.8502399999999994,-2.5286399999999998));
#254=IFCCARTESIANPOINT((8.9907199999999996,-2.5286399999999998));
#255=IFCCARTESIANPOINT((8.9907199999999996,-1.38724));
#256=IFCCARTESIANPOINT((8.8502399999999994,-1.38724));
#257=IFCPOLYLINE((#252,#253,#254,#255,#256));
#258=IFCARBITRARYCLOSEDPROFILEDEF(.AREA.,$,#257);
#259=IFCDIRECTION((0.,0.,1.));
#260=IFCCARTESIANPOINT((0.,0.,0.));
#261=IFCAXIS2PLACEMENT3D(#260,#259,$);
#262=IFCEXTRUDEDAREASOLID(#258,#261,#259,3.);
#263=IFCSTYLEDITEM(#262,(#25),'Wall 2.1');
#264=IFCSHAPEREPRESENTATION(#5,'Body','SweptSolid',(#262));
#265=IFCPRODUCTDEFINITIONSHAPE($,$,(#264));
#266=IFCCARTESIANPOINT((0.,0.,0.));
#267=IFCAXIS2PLACEMENT3D(#266,$,$);
#268=IFCLOCALPLACEMENT($,#267);
#269=IFCWALL('1gK9GUdxzBrRokZ3U573Nx',$,'Wall 2.1',$,$,#268,#265,$,$);
#270=IFCRELCONTAINEDINSPATIALSTRUCTURE('2htIGo_ib4LQr5L$VR9lY2',$,$,$,(#269),#18);
#271=IFCCARTESIANPOINT((8.8502399999999994,-2.75692));
#272=IFCCARTESIANPOINT((8.8502399999999994,-2.8095999999999997));
#273=IFCCARTESIANPOINT((8.9907199999999996,-2.8095999999999997));
#274=IFCCARTESIANPOINT((8.9907199999999996,-2.75692));
#275=IFCCARTESIANPOINT((8.8502399999999994,-2.75692));
#276=IFCPOLYLINE((#271,#272,#273,#274,#275));
#277=IFCARBITRARYCLOSEDPROFILEDEF(.AREA.,$,#276);
#278=IFCDIRECTION((0.,0.,1.));
#279=IFCCARTESIANPOINT((0.,0.,0.));
#280=IFCAXIS2PLACEMENT3D(#279,#278,$);
#281=IFCEXTRUDEDAREASOLID(#277,#280,#278,3.);
#282=IFCSTYLEDITEM(#281,(#25),'Wall 2.2');
#283=IFCSHAPEREPRESENTATION(#5,'Body','SweptSolid',(#281));
#284=IFCPRODUCTDEFINITIONSHAPE($,$,(#283));
#285=IFCCARTESIANPOINT((0.,0.,0.));
#286=IFCAXIS2PLACEMENT3D(#285,$,$);
#287=IFCLOCALPLACEMENT($,#286);
#288=IFCWALL('1eAgIgUX57uecwm2yljZ_4',$,'Wall 2.2',$,$,#287,#284,$,$);
#289=IFCRELCONTAINEDINSPATIALSTRUCTURE('2neCMufDvFlfwaQqaiwDfh',$,$,$,(#288),#18);
#290=IFCCARTESIANPOINT((8.8502399999999994,-2.5286399999999998));
#291=IFCCARTESIANPOINT((8.8502399999999994,-2.75692));
#292=IFCCARTESIANPOINT((8.9907199999999996,-2.75692));
#293=IFCCARTESIANPOINT((8.9907199999999996,-2.5286399999999998));
#294=IFCCARTESIANPOINT((8.8502399999999994,-2.5286399999999998));
#295=IFCPOLYLINE((#290,#291,#292,#293,#294));
#296=IFCARBITRARYCLOSEDPROFILEDEF(.AREA.,$,#295);
#297=IFCDIRECTION((0.,0.,1.));
#298=IFCCARTESIANPOINT((0.,0.,0.));
#299=IFCAXIS2PLACEMENT3D(#298,#297,$);
#300=IFCEXTRUDEDAREASOLID(#296,#299,#297,0.90000000000000002);
#301=IFCSTYLEDITEM(#300,(#25),'Window sill wall 2.1');
#302=IFCSHAPEREPRESENTATION(#5,'Body','SweptSolid',(#300));
#303=IFCPRODUCTDEFINITIONSHAPE($,$,(#302));
#304=IFCCARTESIANPOINT((0.,0.,0.));
#305=IFCAXIS2PLACEMENT3D(#304,$,$);
#306=IFCLOCALPLACEMENT($,#305);
#307=IFCWALL('0bdbnUVbbAtBucpJHLlQOa',$,'Window sill wall 2.1',$,$,#306,#303,$,$);
#308=IFCRELCONTAINEDINSPATIALSTRUCTURE('0i6aF2brb8i8_vQABFDXM6',$,$,$,(#307),#18);
#309=IFCCARTESIANPOINT((8.8502399999999994,-2.5286399999999998));
#310=IFCCARTESIANPOINT((8.8502399999999994,-2.75692));
#311=IFCCARTESIANPOINT((8.9907199999999996,-2.75692));
#312=IFCCARTESIANPOINT((8.9907199999999996,-2.5286399999999998));
#313=IFCCARTESIANPOINT((8.8502399999999994,-2.5286399999999998));
#314=IFCPOLYLINE((#309,#310,#311,#312,#313));
#315=IFCARBITRARYCLOSEDPROFILEDEF(.AREA.,$,#314);
#316=IFCDIRECTION((0.,0.,1.));
#317=IFCCARTESIANPOINT((0.,0.,2.1000000000000001));
#318=IFCAXIS2PLACEMENT3D(#317,#316,$);
#319=IFCEXTRUDEDAREASOLID(#315,#318,#316,0.89999999999999991);
#320=IFCSTYLEDITEM(#319,(#25),'Window head wall 2.1');
#321=IFCSHAPEREPRESENTATION(#5,'Body','SweptSolid',(#319));
#322=IFCPRODUCTDEFINITIONSHAPE($,$,(#321));
#323=IFCCARTESIANPOINT((0.,0.,0.));
#324=IFCAXIS2PLACEMENT3D(#323,$,$);
#325=IFCLOCALPLACEMENT($,#324);
#326=IFCWALL('1DU0M2C8P65RnW92unJ9g9',$,'Window head wall 2.1',$,$,#325,#322,$,$);
#327=IFCRELCONTAINEDINSPATIALSTRUCTURE('3Hk4J5cZH6jxZyRSQTmTR6',$,$,$,(#326),#18);
#328=IFCCARTESIANPOINT((8.9204799999999995,-1.4574799999999999));
#329=IFCCARTESIANPOINT((9.2716799999999999,-1.4574799999999999));
#330=IFCCARTESIANPOINT((9.2716799999999999,-1.3169999999999999));
#331=IFCCARTESIANPOINT((8.9204799999999995,-1.3169999999999999));
#332=IFCCARTESIANPOINT((8.9204799999999995,-1.4574799999999999));
#333=IFCPOLYLINE((#328,#329,#330,#331,#332));
#334=IFCARBITRARYCLOSEDPROFILEDEF(.AREA.,$,#333);
#335=IFCDIRECTION((0.,0.,1.));
#336=IFCCARTESIANPOINT((0.,0.,0.));
#337=IFCAXIS2PLACEMENT3D(#336,#335,$);
#338=IFCEXTRUDEDAREASOLID(#334,#337,#335,3.);
#339=IFCSTYLEDITEM(#338,(#25),'Wall 3.1');
#340=IFCSHAPEREPRESENTATION(#5,'Body','SweptSolid',(#338));
#341=IFCPRODUCTDEFINITIONSHAPE($,$,(#340));
#342=IFCCARTESIANPOINT((0.,0.,0.));
#343=IFCAXIS2PLACEMENT3D(#342,$,$);
#344=IFCLOCALPLACEMENT($,#343);
#345=IFCWALL('2$NZL2kwzBRQu7Ne8grb2i',$,'Wall 3.1',$,$,#344,#341,$,$);
#346=IFCRELCONTAINEDINSPATIALSTRUCTURE('1MJ9$_Lr9CHe4nhjys_rgA',$,$,$,(#345),#18);
#347=IFCCARTESIANPOINT((10.14968,-1.4574799999999999));
#348=IFCCARTESIANPOINT((10.3604,-1.4574799999999999));
#349=IFCCARTESIANPOINT((10.3604,-1.3169999999999999));
#350=IFCCARTESIANPOINT((10.14968,-1.3169999999999999));
#351=IFCCARTESIANPOINT((10.14968,-1.4574799999999999));
#352=IFCPOLYLINE((#347,#348,#349,#350,#351));
#353=IFCARBITRARYCLOSEDPROFILEDEF(.AREA.,$,#352);
#354=IFCDIRECTION((0.,0.,1.));
#355=IFCCARTESIANPOINT((0.,0.,0.));
#356=IFCAXIS2PLACEMENT3D(#355,#354,$);
#357=IFCEXTRUDEDAREASOLID(#353,#356,#354,3.);
#358=IFCSTYLEDITEM(#357,(#25),'Wall 3.2');
#359=IFCSHAPEREPRESENTATION(#5,'Body','SweptSolid',(#357));
#360=IFCPRODUCTDEFINITIONSHAPE($,$,(#359));
#361=IFCCARTESIANPOINT((0.,0.,0.));
#362=IFCAXIS2PLACEMENT3D(#361,$,$);
#363=IFCLOCALPLACEMENT($,#362);
#364=IFCWALL('0PNMpZ0VDAze$G7tSfqJen',$,'Wall 3.2',$,$,#363,#360,$,$);
#365=IFCRELCONTAINEDINSPATIALSTRUCTURE('2kJxydudf8KO9_$j6Y_Don',$,$,$,(#364),#18);
#366=IFCCARTESIANPOINT((5.5138400000000001,-1.38724));
#367=IFCCARTESIANPOINT((5.5138400000000001,-2.6339999999999999));
#368=IFCCARTESIANPOINT((5.6543199999999993,-2.6339999999999999));
#369=IFCCARTESIANPOINT((5.6543199999999993,-1.38724));
#370=IFCCARTESIANPOINT((5.5138400000000001,-1.38724));
#371=IFCPOLYLINE((#366,#367,#368,#369,#370));
#372=IFCARBITRARYCLOSEDPROFILEDEF(.AREA.,$,#371);
#373=IFCDIRECTION((0.,0.,1.));
#374=IFCCARTESIANPOINT((0.,0.,0.));
#375=IFCAXIS2PLACEMENT3D(#374,#373,$);
#376=IFCEXTRUDEDAREASOLID(#372,#375,#373,3.);
#377=IFCSTYLEDITEM(#376,(#25),'Wall 4.1');
#378=IFCSHAPEREPRESENTATION(#5,'Body','SweptSolid',(#376));
#379=IFCPRODUCTDEFINITIONSHAPE($,$,(#378));
#380=IFCCARTESIANPOINT((0.,0.,0.));
#381=IFCAXIS2PLACEMENT3D(#380,$,$);
#382=IFCLOCALPLACEMENT($,#381);
#383=IFCWALL('0kkWWCHsH1_uXVDdBdRpCd',$,'Wall 4.1',$,$,#382,#379,$,$);
#384=IFCRELCONTAINEDINSPATIALSTRUCTURE('3od6uKpKjFq9N387YV7WQj',$,$,$,(#383),#18);
#385=IFCCARTESIANPOINT((8.9204799999999995,-2.73936));
#386=IFCCARTESIANPOINT((7.1293599999999993,-2.73936));
#387=IFCCARTESIANPOINT((7.1293599999999993,-2.8798399999999997));
#388=IFCCARTESIANPOINT((8.9204799999999995,-2.8798399999999997));
#389=IFCCARTESIANPOINT((8.9204799999999995,-2.73936));
#390=IFCPOLYLINE((#385,#386,#387,#388,#389));
#391=IFCARBITRARYCLOSEDPROFILEDEF(.AREA.,$,#390);
#392=IFCDIRECTION((0.,0.,1.));
#393=IFCCARTESIANPOINT((0.,0.,0.));
#394=IFCAXIS2PLACEMENT3D(#393,#392,$);
#395=IFCEXTRUDEDAREASOLID(#391,#394,#392,3.);
#396=IFCSTYLEDITEM(#395,(#25),'Wall 5.1');
#397=IFCSHAPEREPRESENTATION(#5,'Body','SweptSolid',(#395));
#398=IFCPRODUCTDEFINITIONSHAPE($,$,(#397));
#399=IFCCARTESIANPOINT((0.,0.,0.));
#400=IFCAXIS2PLACEMENT3D(#399,$,$);
#401=IFCLOCALPLACEMENT($,#400);
#402=IFCWALL('3ZU1wFTnD5EAfPLl$spVWP',$,'Wall 5.1',$,$,#401,#398,$,$);
#403=IFCRELCONTAINEDINSPATIALSTRUCTURE('1wyQjUiLb6thZoMJyAqkYL',$,$,$,(#402),#18);
#404=IFCCARTESIANPOINT((10.29016,-1.38724));
#405=IFCCARTESIANPOINT((10.29016,-10.834519999999999));
#406=IFCCARTESIANPOINT((10.43064,-10.834519999999999));
#407=IFCCARTESIANPOINT((10.43064,-1.38724));
#408=IFCCARTESIANPOINT((10.29016,-1.38724));
#409=IFCPOLYLINE((#404,#405,#406,#407,#408));
#410=IFCARBITRARYCLOSEDPROFILEDEF(.AREA.,$,#409);
#411=IFCDIRECTION((0.,0.,1.));
#412=IFCCARTESIANPOINT((0.,0.,0.));
#413=IFCAXIS2PLACEMENT3D(#412,#411,$);
#414=IFCEXTRUDEDAREASOLID(#410,#413,#411,3.);
#415=IFCSTYLEDITEM(#414,(#25),'Wall 6.1');
#416=IFCSHAPEREPRESENTATION(#5,'Body','SweptSolid',(#414));
#417=IFCPRODUCTDEFINITIONSHAPE($,$,(#416));
#418=IFCCARTESIANPOINT((0.,0.,0.));
#419=IFCAXIS2PLACEMENT3D(#418,$,$);
#420=IFCLOCALPLACEMENT($,#419);
#421=IFCWALL('3aQBApbpz9uxFw_88Odt_9',$,'Wall 6.1',$,$,#420,#417,$,$);
#422=IFCRELCONTAINEDINSPATIALSTRUCTURE('21uk_MKOXC4fgzP94J7sik',$,$,$,(#421),#18);
#423=IFCCARTESIANPOINT((5.5840800000000002,-2.70424));
#424=IFCCARTESIANPOINT((5.84748,-2.70424));
#425=IFCCARTESIANPOINT((5.84748,-2.5637599999999998));
#426=IFCCARTESIANPOINT((5.5840800000000002,-2.5637599999999998));
#427=IFCCARTESIANPOINT((5.5840800000000002,-2.70424));
#428=IFCPOLYLINE((#423,#424,#425,#426,#427));
#429=IFCARBITRARYCLOSEDPROFILEDEF(.AREA.,$,#428);
#430=IFCDIRECTION((0.,0.,1.));
#431=IFCCARTESIANPOINT((0.,0.,0.));
#432=IFCAXIS2PLACEMENT3D(#431,#430,$);
#433=IFCEXTRUDEDAREASOLID(#429,#432,#430,3.);
#434=IFCSTYLEDITEM(#433,(#25),'Wall 7.1');
#435=IFCSHAPEREPRESENTATION(#5,'Body','SweptSolid',(#433));
#436=IFCPRODUCTDEFINITIONSHAPE($,$,(#435));
#437=IFCCARTESIANPOINT((0.,0.,0.));
#438=IFCAXIS2PLACEMENT3D(#437,$,$);
#439=IFCLOCALPLACEMENT($,#438);
#440=IFCWALL('05RFEQHRT3JgYe6PNMSl1Z',$,'Wall 7.1',$,$,#439,#436,$,$);
#441=IFCRELCONTAINEDINSPATIALSTRUCTURE('21wiu4VvvDWfaL$UNImE3h',$,$,$,(#440),#18);
#442=IFCCARTESIANPOINT((6.3742799999999997,-2.70424));
#443=IFCCARTESIANPOINT((7.1293599999999993,-2.70424));
#444=IFCCARTESIANPOINT((7.1293599999999993,-2.5637599999999998));
#445=IFCCARTESIANPOINT((6.3742799999999997,-2.5637599999999998));
#446=IFCCARTESIANPOINT((6.3742799999999997,-2.70424));
#447=IFCPOLYLINE((#442,#443,#444,#445,#446));
#448=IFCARBITRARYCLOSEDPROFILEDEF(.AREA.,$,#447);
#449=IFCDIRECTION((0.,0.,1.));
#450=IFCCARTESIANPOINT((0.,0.,0.));
#451=IFCAXIS2PLACEMENT3D(#450,#449,$);
#452=IFCEXTRUDEDAREASOLID(#448,#451,#449,3.);
#453=IFCSTYLEDITEM(#452,(#25),'Wall 7.2');
#454=IFCSHAPEREPRESENTATION(#5,'Body','SweptSolid',(#452));
#455=IFCPRODUCTDEFINITIONSHAPE($,$,(#454));
#456=IFCCARTESIANPOINT((0.,0.,0.));
#457=IFCAXIS2PLACEMENT3D(#456,$,$);
#458=IFCLOCALPLACEMENT($,#457);
#459=IFCWALL('3vWtgNJsH7ZgtfKl$dPnOk',$,'Wall 7.2',$,$,#458,#455,$,$);
#460=IFCRELCONTAINEDINSPATIALSTRUCTURE('3MhlAv6Zr1mhfGSqxUuT6p',$,$,$,(#459),#18);
#461=IFCCARTESIANPOINT((5.5138400000000001,-2.6339999999999999));
#462=IFCCARTESIANPOINT((5.5138400000000001,-2.9851999999999999));
#463=IFCCARTESIANPOINT((5.6543199999999993,-2.9851999999999999));
#464=IFCCARTESIANPOINT((5.6543199999999993,-2.6339999999999999));
#465=IFCCARTESIANPOINT((5.5138400000000001,-2.6339999999999999));
#466=IFCPOLYLINE((#461,#462,#463,#464,#465));
#467=IFCARBITRARYCLOSEDPROFILEDEF(.AREA.,$,#466);
#468=IFCDIRECTION((0.,0.,1.));
#469=IFCCARTESIANPOINT((0.,0.,0.));
#470=IFCAXIS2PLACEMENT3D(#469,#468,$);
#471=IFCEXTRUDEDAREASOLID(#467,#470,#468,3.);
#472=IFCSTYLEDITEM(#471,(#25),'Wall 8.1');
#473=IFCSHAPEREPRESENTATION(#5,'Body','SweptSolid',(#471));
#474=IFCPRODUCTDEFINITIONSHAPE($,$,(#473));
#475=IFCCARTESIANPOINT((0.,0.,0.));
#476=IFCAXIS2PLACEMENT3D(#475,$,$);
#477=IFCLOCALPLACEMENT($,#476);
#478=IFCWALL('1OeaEJesb11wd0PLLJG20h',$,'Wall 8.1',$,$,#477,#474,$,$);
#479=IFCRELCONTAINEDINSPATIALSTRUCTURE('3xyckbAM55Cum74zKczXqJ',$,$,$,(#478),#18);
#480=IFCCARTESIANPOINT((5.5138400000000001,-3.45932));
#481=IFCCARTESIANPOINT((5.5138400000000001,-3.5997999999999997));
#482=IFCCARTESIANPOINT((5.6543199999999993,-3.5997999999999997));
#483=IFCCARTESIANPOINT((5.6543199999999993,-3.45932));
#484=IFCCARTESIANPOINT((5.5138400000000001,-3.45932));
#485=IFCPOLYLINE((#480,#481,#482,#483,#484));
#486=IFCARBITRARYCLOSEDPROFILEDEF(.AREA.,$,#485);
#487=IFCDIRECTION((0.,0.,1.));
#488=IFCCARTESIANPOINT((0.,0.,0.));
#489=IFCAXIS2PLACEMENT3D(#488,#487,$);
#490=IFCEXTRUDEDAREASOLID(#486,#489,#487,3.);
#491=IFCSTYLEDITEM(#490,(#25),'Wall 8.2');
#492=IFCSHAPEREPRESENTATION(#5,'Body','SweptSolid',(#490));
#493=IFCPRODUCTDEFINITIONSHAPE($,$,(#492));
#494=IFCCARTESIANPOINT((0.,0.,0.));
#495=IFCAXIS2PLACEMENT3D(#494,$,$);
#496=IFCLOCALPLACEMENT($,#495);
#497=IFCWALL('3AWMn5O4f0wB2Sft_pTQ2$',$,'Wall 8.2',$,$,#496,#493,$,$);
#498=IFCRELCONTAINEDINSPATIALSTRUCTURE('3kgZuJSkHD9OtWjneMrNfC',$,$,$,(#497),#18);
#499=IFCCARTESIANPOINT((5.5138400000000001,-2.9851999999999999));
#500=IFCCARTESIANPOINT((5.5138400000000001,-3.45932));
#501=IFCCARTESIANPOINT((5.6543199999999993,-3.45932));
#502=IFCCARTESIANPOINT((5.6543199999999993,-2.9851999999999999));
#503=IFCCARTESIANPOINT((5.5138400000000001,-2.9851999999999999));
#504=IFCPOLYLINE((#499,#500,#501,#502,#503));
#505=IFCARBITRARYCLOSEDPROFILEDEF(.AREA.,$,#504);
#506=IFCDIRECTION((0.,0.,1.));
#507=IFCCARTESIANPOINT((0.,0.,0.));
#508=IFCAXIS2PLACEMENT3D(#507,#506,$);
#509=IFCEXTRUDEDAREASOLID(#505,#508,#506,0.90000000000000002);
#510=IFCSTYLEDITEM(#509,(#25),'Window sill wall 8.1');
#511=IFCSHAPEREPRESENTATION(#5,'Body','SweptSolid',(#509));
#512=IFCPRODUCTDEFINITIONSHAPE($,$,(#511));
#513=IFCCARTESIANPOINT((0.,0.,0.));
#514=IFCAXIS2PLACEMENT3D(#513,$,$);
#515=IFCLOCALPLACEMENT($,#514);
#516=IFCWALL('1SOgjRsmnEjPirHEEJWR2W',$,'Window sill wall 8.1',$,$,#515,#512,$,$);
#517=IFCRELCONTAINEDINSPATIALSTRUCTURE('3VdHD3duD0UvxlrQ6Y7SrT',$,$,$,(#516),#18);
#518=IFCCARTESIANPOINT((5.5138400000000001,-2.9851999999999999));
#519=IFCCARTESIANPOINT((5.5138400000000001,-3.45932));
#520=IFCCARTESIANPOINT((5.6543199999999993,-3.45932));
#521=IFCCARTESIANPOINT((5.6543199999999993,-2.9851999999999999));
#522=IFCCARTESIANPOINT((5.5138400000000001,-2.9851999999999999));
#523=IFCPOLYLINE((#518,#519,#520,#521,#522));
#524=IFCARBITRARYCLOSEDPROFILEDEF(.AREA.,$,#523);
#525=IFCDIRECTION((0.,0.,1.));
#526=IFCCARTESIANPOINT((0.,0.,2.1000000000000001));
#527=IFCAXIS2PLACEMENT3D(#526,#525,$);
#528=IFCEXTRUDEDAREASOLID(#524,#527,#525,0.89999999999999991);
#529=IFCSTYLEDITEM(#528,(#25),'Window head wall 8.1');
#530=IFCSHAPEREPRESENTATION(#5,'Body','SweptSolid',(#528));
#531=IFCPRODUCTDEFINITIONSHAPE($,$,(#530));
#532=IFCCARTESIANPOINT((0.,0.,0.));
#533=IFCAXIS2PLACEMENT3D(#532,$,$);
#534=IFCLOCALPLACEMENT($,#533);
#535=IFCWALL('2dkQ0$s4X2MA$ZHq_$FkCw',$,'Window head wall 8.1',$,$,#534,#531,$,$);
#536=IFCRELCONTAINEDINSPATIALSTRUCTURE('0iGGTA0FbF5g2LGCWCiDIf',$,$,$,(#535),#18);
#537=IFCCARTESIANPOINT((7.1995999999999993,-2.8095999999999997));
#538=IFCCARTESIANPOINT((7.1995999999999993,-2.6339999999999999));
#539=IFCCARTESIANPOINT((7.0591200000000001,-2.6339999999999999));
#540=IFCCARTESIANPOINT((7.0591200000000001,-2.8095999999999997));
#541=IFCCARTESIANPOINT((7.1995999999999993,-2.8095999999999997));
#542=IFCPOLYLINE((#537,#538,#539,#540,#541));
#543=IFCARBITRARYCLOSEDPROFILEDEF(.AREA.,$,#542);
#544=IFCDIRECTION((0.,0.,1.));
#545=IFCCARTESIANPOINT((0.,0.,0.));
#546=IFCAXIS2PLACEMENT3D(#545,#544,$);
#547=IFCEXTRUDEDAREASOLID(#543,#546,#544,3.);
#548=IFCSTYLEDITEM(#547,(#25),'Wall 9.1');
#549=IFCSHAPEREPRESENTATION(#5,'Body','SweptSolid',(#547));
#550=IFCPRODUCTDEFINITIONSHAPE($,$,(#549));
#551=IFCCARTESIANPOINT((0.,0.,0.));
#552=IFCAXIS2PLACEMENT3D(#551,$,$);
#553=IFCLOCALPLACEMENT($,#552);
#554=IFCWALL('2XqMOjxY9Aj9SYQjCob7_5',$,'Wall 9.1',$,$,#553,#550,$,$);
#555=IFCRELCONTAINEDINSPATIALSTRUCTURE('0xaiq1iCPBB9nhsiPHYfhn',$,$,$,(#554),#18);
#556=IFCCARTESIANPOINT((7.0591200000000001,-2.8095999999999997));
#557=IFCCARTESIANPOINT((7.0591200000000001,-3.512));
#558=IFCCARTESIANPOINT((7.1995999999999993,-3.512));
#559=IFCCARTESIANPOINT((7.1995999999999993,-2.8095999999999997));
#560=IFCCARTESIANPOINT((7.0591200000000001,-2.8095999999999997));
#561=IFCPOLYLINE((#556,#557,#558,#559,#560));
#562=IFCARBITRARYCLOSEDPROFILEDEF(.AREA.,$,#561);
#563=IFCDIRECTION((0.,0.,1.));
#564=IFCCARTESIANPOINT((0.,0.,0.));
#565=IFCAXIS2PLACEMENT3D(#564,#563,$);
#566=IFCEXTRUDEDAREASOLID(#562,#565,#563,3.);
#567=IFCSTYLEDITEM(#566,(#25),'Wall 10.1');
#568=IFCSHAPEREPRESENTATION(#5,'Body','SweptSolid',(#566));
#569=IFCPRODUCTDEFINITIONSHAPE($,$,(#568));
#570=IFCCARTESIANPOINT((0.,0.,0.));
#571=IFCAXIS2PLACEMENT3D(#570,$,$);
#572=IFCLOCALPLACEMENT($,#571);
#573=IFCWALL('2tWarteXLENRB1rX_trXIE',$,'Wall 10.1',$,$,#572,#569,$,$);
#574=IFCRELCONTAINEDINSPATIALSTRUCTURE('1xFarszuX19P7_X41$FpM6',$,$,$,(#573),#18);
#575=IFCCARTESIANPOINT((10.3604,-10.764279999999999));
#576=IFCCARTESIANPOINT((7.1293599999999993,-10.764279999999999));
#577=IFCCARTESIANPOINT((7.1293599999999993,-10.90476));
#578=IFCCARTESIANPOINT((10.3604,-10.90476));
#579=IFCCARTESIANPOINT((10.3604,-10.764279999999999));
#580=IFCPOLYLINE((#575,#576,#577,#578,#579));
#581=IFCARBITRARYCLOSEDPROFILEDEF(.AREA.,$,#580);
#582=IFCDIRECTION((0.,0.,1.));
#583=IFCCARTESIANPOINT((0.,0.,0.));
#584=IFCAXIS2PLACEMENT3D(#583,#582,$);
#585=IFCEXTRUDEDAREASOLID(#581,#584,#582,3.);
#586=IFCSTYLEDITEM(#585,(#25),'Wall 11.1');
#587=IFCSHAPEREPRESENTATION(#5,'Body','SweptSolid',(#585));
#588=IFCPRODUCTDEFINITIONSHAPE($,$,(#587));
#589=IFCCARTESIANPOINT((0.,0.,0.));
#590=IFCAXIS2PLACEMENT3D(#589,$,$);
#591=IFCLOCALPLACEMENT($,#590);
#592=IFCWALL('0lgjcHwYr6eAA5HoqtUo1C',$,'Wall 11.1',$,$,#591,#588,$,$);
#593=IFCRELCONTAINEDINSPATIALSTRUCTURE('3gK3hwAgD3aQ$1$pChyDxT',$,$,$,(#592),#18);
#594=IFCCARTESIANPOINT((5.5840800000000002,-3.6700399999999997));
#595=IFCCARTESIANPOINT((6.3742799999999997,-3.6700399999999997));
#596=IFCCARTESIANPOINT((6.3742799999999997,-3.52956));
#597=IFCCARTESIANPOINT((5.5840800000000002,-3.52956));
#598=IFCCARTESIANPOINT((5.5840800000000002,-3.6700399999999997));
#599=IFCPOLYLINE((#594,#595,#596,#597,#598));
#600=IFCARBITRARYCLOSEDPROFILEDEF(.AREA.,$,#599);
#601=IFCDIRECTION((0.,0.,1.));
#602=IFCCARTESIANPOINT((0.,0.,0.));
#603=IFCAXIS2PLACEMENT3D(#602,#601,$);
#604=IFCEXTRUDEDAREASOLID(#600,#603,#601,3.);
#605=IFCSTYLEDITEM(#604,(#25),'Wall 12.1');
#606=IFCSHAPEREPRESENTATION(#5,'Body','SweptSolid',(#604));
#607=IFCPRODUCTDEFINITIONSHAPE($,$,(#606));
#608=IFCCARTESIANPOINT((0.,0.,0.));
#609=IFCAXIS2PLACEMENT3D(#608,$,$);
#610=IFCLOCALPLACEMENT($,#609);
#611=IFCWALL('04sTVdCGT9lgV9rtCuolPe',$,'Wall 12.1',$,$,#610,#607,$,$);
#612=IFCRELCONTAINEDINSPATIALSTRUCTURE('2mQB1HNZb6lPp69JYZ2dZx',$,$,$,(#611),#18);
#613=IFCCARTESIANPOINT((5.5840800000000002,-3.52956));
#614=IFCCARTESIANPOINT((2.0720799999999997,-3.52956));
#615=IFCCARTESIANPOINT((2.0720799999999997,-3.6700399999999997));
#616=IFCCARTESIANPOINT((5.5840800000000002,-3.6700399999999997));
#617=IFCCARTESIANPOINT((5.5840800000000002,-3.52956));
#618=IFCPOLYLINE((#613,#614,#615,#616,#617));
#619=IFCARBITRARYCLOSEDPROFILEDEF(.AREA.,$,#618);
#620=IFCDIRECTION((0.,0.,1.));
#621=IFCCARTESIANPOINT((0.,0.,0.));
#622=IFCAXIS2PLACEMENT3D(#621,#620,$);
#623=IFCEXTRUDEDAREASOLID(#619,#622,#620,3.);
#624=IFCSTYLEDITEM(#623,(#25),'Wall 13.1');
#625=IFCSHAPEREPRESENTATION(#5,'Body','SweptSolid',(#623));
#626=IFCPRODUCTDEFINITIONSHAPE($,$,(#625));
#627=IFCCARTESIANPOINT((0.,0.,0.));
#628=IFCAXIS2PLACEMENT3D(#627,$,$);
#629=IFCLOCALPLACEMENT($,#628);
#630=IFCWALL('0BgV2JY8L6q8jTIlMleVfx',$,'Wall 13.1',$,$,#629,#626,$,$);
#631=IFCRELCONTAINEDINSPATIALSTRUCTURE('3ZgayHfMDBmvG1Hl2SSPtF',$,$,$,(#630),#18);
#632=IFCCARTESIANPOINT((7.0591200000000001,-3.512));
#633=IFCCARTESIANPOINT((7.0591200000000001,-3.7753999999999999));
#634=IFCCARTESIANPOINT((7.1995999999999993,-3.7753999999999999));
#635=IFCCARTESIANPOINT((7.1995999999999993,-3.512));
#636=IFCCARTESIANPOINT((7.0591200000000001,-3.512));
#637=IFCPOLYLINE((#632,#633,#634,#635,#636));
#638=IFCARBITRARYCLOSEDPROFILEDEF(.AREA.,$,#637);
#639=IFCDIRECTION((0.,0.,1.));
#640=IFCCARTESIANPOINT((0.,0.,0.));
#641=IFCAXIS2PLACEMENT3D(#640,#639,$);
#642=IFCEXTRUDEDAREASOLID(#638,#641,#639,3.);
#643=IFCSTYLEDITEM(#642,(#25),'Wall 14.1');
#644=IFCSHAPEREPRESENTATION(#5,'Body','SweptSolid',(#642));
#645=IFCPRODUCTDEFINITIONSHAPE($,$,(#644));
#646=IFCCARTESIANPOINT((0.,0.,0.));
#647=IFCAXIS2PLACEMENT3D(#646,$,$);
#648=IFCLOCALPLACEMENT($,#647);
#649=IFCWALL('3Cy8n7eM9B9wgVyecXicAa',$,'Wall 14.1',$,$,#648,#645,$,$);
#650=IFCRELCONTAINEDINSPATIALSTRUCTURE('1rRoFi4Xv8x80Z8upRMQE4',$,$,$,(#649),#18);
#651=IFCCARTESIANPOINT((7.1293599999999993,-3.5822399999999996));
#652=IFCCARTESIANPOINT((7.6912799999999999,-3.5822399999999996));
#653=IFCCARTESIANPOINT((7.6912799999999999,-3.4417599999999999));
#654=IFCCARTESIANPOINT((7.1293599999999993,-3.4417599999999999));
#655=IFCCARTESIANPOINT((7.1293599999999993,-3.5822399999999996));
#656=IFCPOLYLINE((#651,#652,#653,#654,#655));
#657=IFCARBITRARYCLOSEDPROFILEDEF(.AREA.,$,#656);
#658=IFCDIRECTION((0.,0.,1.));
#659=IFCCARTESIANPOINT((0.,0.,0.));
#660=IFCAXIS2PLACEMENT3D(#659,#658,$);
#661=IFCEXTRUDEDAREASOLID(#657,#660,#658,3.);
#662=IFCSTYLEDITEM(#661,(#25),'Wall 15.1');
#663=IFCSHAPEREPRESENTATION(#5,'Body','SweptSolid',(#661));
#664=IFCPRODUCTDEFINITIONSHAPE($,$,(#663));
#665=IFCCARTESIANPOINT((0.,0.,0.));
#666=IFCAXIS2PLACEMENT3D(#665,$,$);
#667=IFCLOCALPLACEMENT($,#666);
#668=IFCWALL('3oxiXj24v0RRVsNYQv4QLF',$,'Wall 15.1',$,$,#667,#664,$,$);
#669=IFCRELCONTAINEDINSPATIALSTRUCTURE('1lDRAajiPAkerWQ6M_bYNc',$,$,$,(#668),#18);
#670=IFCCARTESIANPOINT((6.3040399999999996,-3.5997999999999997));
#671=IFCCARTESIANPOINT((6.3040399999999996,-3.7753999999999999));
#672=IFCCARTESIANPOINT((6.4445199999999998,-3.7753999999999999));
#673=IFCCARTESIANPOINT((6.4445199999999998,-3.5997999999999997));
#674=IFCCARTESIANPOINT((6.3040399999999996,-3.5997999999999997));
#675=IFCPOLYLINE((#670,#671,#672,#673,#674));
#676=IFCARBITRARYCLOSEDPROFILEDEF(.AREA.,$,#675);
#677=IFCDIRECTION((0.,0.,1.));
#678=IFCCARTESIANPOINT((0.,0.,0.));
#679=IFCAXIS2PLACEMENT3D(#678,#677,$);
#680=IFCEXTRUDEDAREASOLID(#676,#679,#677,3.);
#681=IFCSTYLEDITEM(#680,(#25),'Wall 16.1');
#682=IFCSHAPEREPRESENTATION(#5,'Body','SweptSolid',(#680));
#683=IFCPRODUCTDEFINITIONSHAPE($,$,(#682));
#684=IFCCARTESIANPOINT((0.,0.,0.));
#685=IFCAXIS2PLACEMENT3D(#684,$,$);
#686=IFCLOCALPLACEMENT($,#685);
#687=IFCWALL('0xMNsCO0f5jgQg6iUxgD4l',$,'Wall 16.1',$,$,#686,#683,$,$);
#688=IFCRELCONTAINEDINSPATIALSTRUCTURE('1zjjMuFyX3tP1TQ2_Av$A2',$,$,$,(#687),#18);
#689=IFCCARTESIANPOINT((2.0018400000000001,-3.5997999999999997));
#690=IFCCARTESIANPOINT((2.0018400000000001,-5.6894399999999994));
#691=IFCCARTESIANPOINT((2.1423199999999998,-5.6894399999999994));
#692=IFCCARTESIANPOINT((2.1423199999999998,-3.5997999999999997));
#693=IFCCARTESIANPOINT((2.0018400000000001,-3.5997999999999997));
#694=IFCPOLYLINE((#689,#690,#691,#692,#693));
#695=IFCARBITRARYCLOSEDPROFILEDEF(.AREA.,$,#694);
#696=IFCDIRECTION((0.,0.,1.));
#697=IFCCARTESIANPOINT((0.,0.,0.));
#698=IFCAXIS2PLACEMENT3D(#697,#696,$);
#699=IFCEXTRUDEDAREASOLID(#695,#698,#696,3.);
#700=IFCSTYLEDITEM(#699,(#25),'Wall 17.1');
#701=IFCSHAPEREPRESENTATION(#5,'Body','SweptSolid',(#699));
#702=IFCPRODUCTDEFINITIONSHAPE($,$,(#701));
#703=IFCCARTESIANPOINT((0.,0.,0.));
#704=IFCAXIS2PLACEMENT3D(#703,$,$);
#705=IFCLOCALPLACEMENT($,#704);
#706=IFCWALL('1n1Z5105fCbBSdwzhcNU1Y',$,'Wall 17.1',$,$,#705,#702,$,$);
#707=IFCRELCONTAINEDINSPATIALSTRUCTURE('0MZSLX6V9C9Q78RStFwW0p',$,$,$,(#706),#18);
#708=IFCCARTESIANPOINT((7.1293599999999993,-3.7051599999999998));
#709=IFCCARTESIANPOINT((6.8132799999999998,-3.7051599999999998));
#710=IFCCARTESIANPOINT((6.8132799999999998,-3.8456399999999999));
#711=IFCCARTESIANPOINT((7.1293599999999993,-3.8456399999999999));
#712=IFCCARTESIANPOINT((7.1293599999999993,-3.7051599999999998));
#713=IFCPOLYLINE((#708,#709,#710,#711,#712));
#714=IFCARBITRARYCLOSEDPROFILEDEF(.AREA.,$,#713);
#715=IFCDIRECTION((0.,0.,1.));
#716=IFCCARTESIANPOINT((0.,0.,0.));
#717=IFCAXIS2PLACEMENT3D(#716,#715,$);
#718=IFCEXTRUDEDAREASOLID(#714,#717,#715,3.);
#719=IFCSTYLEDITEM(#718,(#25),'Wall 18.1');
#720=IFCSHAPEREPRESENTATION(#5,'Body','SweptSolid',(#718));
#721=IFCPRODUCTDEFINITIONSHAPE($,$,(#720));
#722=IFCCARTESIANPOINT((0.,0.,0.));
#723=IFCAXIS2PLACEMENT3D(#722,$,$);
#724=IFCLOCALPLACEMENT($,#723);
#725=IFCWALL('21wGBEdj5CZPW9Nz4pGmJH',$,'Wall 18.1',$,$,#724,#721,$,$);
#726=IFCRELCONTAINEDINSPATIALSTRUCTURE('2Z6zQrhHP5VvpZfsz55WXG',$,$,$,(#725),#18);
#727=IFCCARTESIANPOINT((6.4269599999999993,-3.7051599999999998));
#728=IFCCARTESIANPOINT((6.3742799999999997,-3.7051599999999998));
#729=IFCCARTESIANPOINT((6.3742799999999997,-3.8456399999999999));
#730=IFCCARTESIANPOINT((6.4269599999999993,-3.8456399999999999));
#731=IFCCARTESIANPOINT((6.4269599999999993,-3.7051599999999998));
#732=IFCPOLYLINE((#727,#728,#729,#730,#731));
#733=IFCARBITRARYCLOSEDPROFILEDEF(.AREA.,$,#732);
#734=IFCDIRECTION((0.,0.,1.));
#735=IFCCARTESIANPOINT((0.,0.,0.));
#736=IFCAXIS2PLACEMENT3D(#735,#734,$);
#737=IFCEXTRUDEDAREASOLID(#733,#736,#734,3.);
#738=IFCSTYLEDITEM(#737,(#25),'Wall 18.2');
#739=IFCSHAPEREPRESENTATION(#5,'Body','SweptSolid',(#737));
#740=IFCPRODUCTDEFINITIONSHAPE($,$,(#739));
#741=IFCCARTESIANPOINT((0.,0.,0.));
#742=IFCAXIS2PLACEMENT3D(#741,$,$);
#743=IFCLOCALPLACEMENT($,#742);
#744=IFCWALL('3F6HMx65j11f1GjpjmXFvc',$,'Wall 18.2',$,$,#743,#740,$,$);
#745=IFCRELCONTAINEDINSPATIALSTRUCTURE('1Ejd6xaGDA4wyA4d$Efel1',$,$,$,(#744),#18);
#746=IFCCARTESIANPOINT((6.8132799999999998,-3.7051599999999998));
#747=IFCCARTESIANPOINT((6.4269599999999993,-3.7051599999999998));
#748=IFCCARTESIANPOINT((6.4269599999999993,-3.8456399999999999));
#749=IFCCARTESIANPOINT((6.8132799999999998,-3.8456399999999999));
#750=IFCCARTESIANPOINT((6.8132799999999998,-3.7051599999999998));
#751=IFCPOLYLINE((#746,#747,#748,#749,#750));
#752=IFCARBITRARYCLOSEDPROFILEDEF(.AREA.,$,#751);
#753=IFCDIRECTION((0.,0.,1.));
#754=IFCCARTESIANPOINT((0.,0.,0.));
#755=IFCAXIS2PLACEMENT3D(#754,#753,$);
#756=IFCEXTRUDEDAREASOLID(#752,#755,#753,0.90000000000000002);
#757=IFCSTYLEDITEM(#756,(#25),'Window sill wall 18.1');
#758=IFCSHAPEREPRESENTATION(#5,'Body','SweptSolid',(#756));
#759=IFCPRODUCTDEFINITIONSHAPE($,$,(#758));
#760=IFCCARTESIANPOINT((0.,0.,0.));
#761=IFCAXIS2PLACEMENT3D(#760,$,$);
#762=IFCLOCALPLACEMENT($,#761);
#763=IFCWALL('2vIXF7tU59Cf$ygt4jzQVH',$,'Window sill wall 18.1',$,$,#762,#759,$,$);
#764=IFCRELCONTAINEDINSPATIALSTRUCTURE('1ol5JdHNr8lxGT8eOEfHzc',$,$,$,(#763),#18);
#765=IFCCARTESIANPOINT((6.8132799999999998,-3.7051599999999998));
#766=IFCCARTESIANPOINT((6.4269599999999993,-3.7051599999999998));
#767=IFCCARTESIANPOINT((6.4269599999999993,-3.8456399999999999));
#768=IFCCARTESIANPOINT((6.8132799999999998,-3.8456399999999999));
#769=IFCCARTESIANPOINT((6.8132799999999998,-3.7051599999999998));
#770=IFCPOLYLINE((#765,#766,#767,#768,#769));
#771=IFCARBITRARYCLOSEDPROFILEDEF(.AREA.,$,#770);
#772=IFCDIRECTION((0.,0.,1.));
#773=IFCCARTESIANPOINT((0.,0.,2.1000000000000001));
#774=IFCAXIS2PLACEMENT3D(#773,#772,$);
#775=IFCEXTRUDEDAREASOLID(#771,#774,#772,0.89999999999999991);
#776=IFCSTYLEDITEM(#775,(#25),'Window head wall 18.1');
#777=IFCSHAPEREPRESENTATION(#5,'Body','SweptSolid',(#775));
#778=IFCPRODUCTDEFINITIONSHAPE($,$,(#777));
#779=IFCCARTESIANPOINT((0.,0.,0.));
#780=IFCAXIS2PLACEMENT3D(#779,$,$);
#781=IFCLOCALPLACEMENT($,#780);
#782=IFCWALL('3ajWvgT913duheTKW87jTF',$,'Window head wall 18.1',$,$,#781,#778,$,$);
#783=IFCRELCONTAINEDINSPATIALSTRUCTURE('1UdZPKMJr38fjfI7BajiUC',$,$,$,(#782),#18);
#784=IFCCARTESIANPOINT((7.6210399999999998,-3.512));
#785=IFCCARTESIANPOINT((7.6210399999999998,-5.6894399999999994));
#786=IFCCARTESIANPOINT((7.76152,-5.6894399999999994));
#787=IFCCARTESIANPOINT((7.76152,-3.512));
#788=IFCCARTESIANPOINT((7.6210399999999998,-3.512));
#789=IFCPOLYLINE((#784,#785,#786,#787,#788));
#790=IFCARBITRARYCLOSEDPROFILEDEF(.AREA.,$,#789);
#791=IFCDIRECTION((0.,0.,1.));
#792=IFCCARTESIANPOINT((0.,0.,0.));
#793=IFCAXIS2PLACEMENT3D(#792,#791,$);
#794=IFCEXTRUDEDAREASOLID(#790,#793,#791,3.);
#795=IFCSTYLEDITEM(#794,(#25),'Wall 19.1');
#796=IFCSHAPEREPRESENTATION(#5,'Body','SweptSolid',(#794));
#797=IFCPRODUCTDEFINITIONSHAPE($,$,(#796));
#798=IFCCARTESIANPOINT((0.,0.,0.));
#799=IFCAXIS2PLACEMENT3D(#798,$,$);
#800=IFCLOCALPLACEMENT($,#799);
#801=IFCWALL('1uyp0YFnPAhxwVSCmkfO_w',$,'Wall 19.1',$,$,#800,#797,$,$);
#802=IFCRELCONTAINEDINSPATIALSTRUCTURE('3x5CSWCQj8L8PlqzTHOLwu',$,$,$,(#801),#18);
#803=IFCCARTESIANPOINT((6.3040399999999996,-3.7753999999999999));
#804=IFCCARTESIANPOINT((6.3040399999999996,-5.6894399999999994));
#805=IFCCARTESIANPOINT((6.4445199999999998,-5.6894399999999994));
#806=IFCCARTESIANPOINT((6.4445199999999998,-3.7753999999999999));
#807=IFCCARTESIANPOINT((6.3040399999999996,-3.7753999999999999));
#808=IFCPOLYLINE((#803,#804,#805,#806,#807));
#809=IFCARBITRARYCLOSEDPROFILEDEF(.AREA.,$,#808);
#810=IFCDIRECTION((0.,0.,1.));
#811=IFCCARTESIANPOINT((0.,0.,0.));
#812=IFCAXIS2PLACEMENT3D(#811,#810,$);
#813=IFCEXTRUDEDAREASOLID(#809,#812,#810,3.);
#814=IFCSTYLEDITEM(#813,(#25),'Wall 20.1');
#815=IFCSHAPEREPRESENTATION(#5,'Body','SweptSolid',(#813));
#816=IFCPRODUCTDEFINITIONSHAPE($,$,(#815));
#817=IFCCARTESIANPOINT((0.,0.,0.));
#818=IFCAXIS2PLACEMENT3D(#817,$,$);
#819=IFCLOCALPLACEMENT($,#818);
#820=IFCWALL('13A5sppMf2898kC948hkLm',$,'Wall 20.1',$,$,#819,#816,$,$);
#821=IFCRELCONTAINEDINSPATIALSTRUCTURE('0Hm2$4s3LACwqL5UdsU2vZ',$,$,$,(#820),#18);
#822=IFCCARTESIANPOINT((5.3206799999999994,-9.0960799999999988));
#823=IFCCARTESIANPOINT((5.3206799999999994,-9.6755599999999991));
#824=IFCCARTESIANPOINT((5.4611599999999996,-9.6755599999999991));
#825=IFCCARTESIANPOINT((5.4611599999999996,-9.0960799999999988));
#826=IFCCARTESIANPOINT((5.3206799999999994,-9.0960799999999988));
#827=IFCPOLYLINE((#822,#823,#824,#825,#826));
#828=IFCARBITRARYCLOSEDPROFILEDEF(.AREA.,$,#827);
#829=IFCDIRECTION((0.,0.,1.));
#830=IFCCARTESIANPOINT((0.,0.,0.));
#831=IFCAXIS2PLACEMENT3D(#830,#829,$);
#832=IFCEXTRUDEDAREASOLID(#828,#831,#829,3.);
#833=IFCSTYLEDITEM(#832,(#25),'Wall 21.1');
#834=IFCSHAPEREPRESENTATION(#5,'Body','SweptSolid',(#832));
#835=IFCPRODUCTDEFINITIONSHAPE($,$,(#834));
#836=IFCCARTESIANPOINT((0.,0.,0.));
#837=IFCAXIS2PLACEMENT3D(#836,$,$);
#838=IFCLOCALPLACEMENT($,#837);
#839=IFCWALL('33TcNWmdPAJg$o5mZD55K3',$,'Wall 21.1',$,$,#838,#835,$,$);
#840=IFCRELCONTAINEDINSPATIALSTRUCTURE('3n_w5KiS93PgchTpjFrwa3',$,$,$,(#839),#18);
#841=IFCCARTESIANPOINT((5.3909199999999995,-9.0258399999999988));
#842=IFCCARTESIANPOINT((4.9870399999999995,-9.0258399999999988));
#843=IFCCARTESIANPOINT((4.9870399999999995,-9.1663199999999989));
#844=IFCCARTESIANPOINT((5.3909199999999995,-9.1663199999999989));
#845=IFCCARTESIANPOINT((5.3909199999999995,-9.0258399999999988));
#846=IFCPOLYLINE((#841,#842,#843,#844,#845));
#847=IFCARBITRARYCLOSEDPROFILEDEF(.AREA.,$,#846);
#848=IFCDIRECTION((0.,0.,1.));
#849=IFCCARTESIANPOINT((0.,0.,0.));
#850=IFCAXIS2PLACEMENT3D(#849,#848,$);
#851=IFCEXTRUDEDAREASOLID(#847,#850,#848,3.);
#852=IFCSTYLEDITEM(#851,(#25),'Wall 22.1');
#853=IFCSHAPEREPRESENTATION(#5,'Body','SweptSolid',(#851));
#854=IFCPRODUCTDEFINITIONSHAPE($,$,(#853));
#855=IFCCARTESIANPOINT((0.,0.,0.));
#856=IFCAXIS2PLACEMENT3D(#855,$,$);
#857=IFCLOCALPLACEMENT($,#856);
#858=IFCWALL('3Fs7m4bwD9KA6Zi47sIYL7',$,'Wall 22.1',$,$,#857,#854,$,$);
#859=IFCRELCONTAINEDINSPATIALSTRUCTURE('3kpsr94hn5BvHi$WdVAY_U',$,$,$,(#858),#18);
#860=IFCCARTESIANPOINT((5.3909199999999995,-9.7457999999999991));
#861=IFCCARTESIANPOINT((5.47872,-9.7457999999999991));
#862=IFCCARTESIANPOINT((5.47872,-9.605319999999999));
#863=IFCCARTESIANPOINT((5.3909199999999995,-9.605319999999999));
#864=IFCCARTESIANPOINT((5.3909199999999995,-9.7457999999999991));
#865=IFCPOLYLINE((#860,#861,#862,#863,#864));
#866=IFCARBITRARYCLOSEDPROFILEDEF(.AREA.,$,#865);
#867=IFCDIRECTION((0.,0.,1.));
#868=IFCCARTESIANPOINT((0.,0.,0.));
#869=IFCAXIS2PLACEMENT3D(#868,#867,$);
#870=IFCEXTRUDEDAREASOLID(#866,#869,#867,3.);
#871=IFCSTYLEDITEM(#870,(#25),'Wall 23.1');
#872=IFCSHAPEREPRESENTATION(#5,'Body','SweptSolid',(#870));
#873=IFCPRODUCTDEFINITIONSHAPE($,$,(#872));
#874=IFCCARTESIANPOINT((0.,0.,0.));
#875=IFCAXIS2PLACEMENT3D(#874,$,$);
#876=IFCLOCALPLACEMENT($,#875);
#877=IFCWALL('2wapW54cf0XxAloEyC_ugS',$,'Wall 23.1',$,$,#876,#873,$,$);
#878=IFCRELCONTAINEDINSPATIALSTRUCTURE('0PY3AksVf8UhmGFyU7dlMi',$,$,$,(#877),#18);
#879=IFCCARTESIANPOINT((6.62012,-9.7457999999999991));
#880=IFCCARTESIANPOINT((6.7254800000000001,-9.7457999999999991));
#881=IFCCARTESIANPOINT((6.7254800000000001,-9.605319999999999));
#882=IFCCARTESIANPOINT((6.62012,-9.605319999999999));
#883=IFCCARTESIANPOINT((6.62012,-9.7457999999999991));
#884=IFCPOLYLINE((#879,#880,#881,#882,#883));
#885=IFCARBITRARYCLOSEDPROFILEDEF(.AREA.,$,#884);
#886=IFCDIRECTION((0.,0.,1.));
#887=IFCCARTESIANPOINT((0.,0.,0.));
#888=IFCAXIS2PLACEMENT3D(#887,#886,$);
#889=IFCEXTRUDEDAREASOLID(#885,#888,#886,3.);
#890=IFCSTYLEDITEM(#889,(#25),'Wall 23.2');
#891=IFCSHAPEREPRESENTATION(#5,'Body','SweptSolid',(#889));
#892=IFCPRODUCTDEFINITIONSHAPE($,$,(#891));
#893=IFCCARTESIANPOINT((0.,0.,0.));
#894=IFCAXIS2PLACEMENT3D(#893,$,$);
#895=IFCLOCALPLACEMENT($,#894);
#896=IFCWALL('1vMoN6KjjArx$oDZXjACKC',$,'Wall 23.2',$,$,#895,#892,$,$);
#897=IFCRELCONTAINEDINSPATIALSTRUCTURE('13kWnYS$9768ygdcuI0A8A',$,$,$,(#896),#18);
#898=IFCCARTESIANPOINT((5.47872,-9.7457999999999991));
#899=IFCCARTESIANPOINT((6.62012,-9.7457999999999991));
#900=IFCCARTESIANPOINT((6.62012,-9.605319999999999));
#901=IFCCARTESIANPOINT((5.47872,-9.605319999999999));
#902=IFCCARTESIANPOINT((5.47872,-9.7457999999999991));
#903=IFCPOLYLINE((#898,#899,#900,#901,#902));
#904=IFCARBITRARYCLOSEDPROFILEDEF(.AREA.,$,#903);
#905=IFCDIRECTION((0.,0.,1.));
#906=IFCCARTESIANPOINT((0.,0.,0.));
#907=IFCAXIS2PLACEMENT3D(#906,#905,$);
#908=IFCEXTRUDEDAREASOLID(#904,#907,#905,0.90000000000000002);
#909=IFCSTYLEDITEM(#908,(#25),'Window sill wall 23.1');
#910=IFCSHAPEREPRESENTATION(#5,'Body','SweptSolid',(#908));
#911=IFCPRODUCTDEFINITIONSHAPE($,$,(#910));
#912=IFCCARTESIANPOINT((0.,0.,0.));
#913=IFCAXIS2PLACEMENT3D(#912,$,$);
#914=IFCLOCALPLACEMENT($,#913);
#915=IFCWALL('2vePaR6I95Fvonp4yzpms9',$,'Window sill wall 23.1',$,$,#914,#911,$,$);
#916=IFCRELCONTAINEDINSPATIALSTRUCTURE('2tZk_U2lTCxvATKUnpeCgK',$,$,$,(#915),#18);
#917=IFCCARTESIANPOINT((5.47872,-9.7457999999999991));
#918=IFCCARTESIANPOINT((6.62012,-9.7457999999999991));
#919=IFCCARTESIANPOINT((6.62012,-9.605319999999999));
#920=IFCCARTESIANPOINT((5.47872,-9.605319999999999));
#921=IFCCARTESIANPOINT((5.47872,-9.7457999999999991));
#922=IFCPOLYLINE((#917,#918,#919,#920,#921));
#923=IFCARBITRARYCLOSEDPROFILEDEF(.AREA.,$,#922);
#924=IFCDIRECTION((0.,0.,1.));
#925=IFCCARTESIANPOINT((0.,0.,2.1000000000000001));
#926=IFCAXIS2PLACEMENT3D(#925,#924,$);
#927=IFCEXTRUDEDAREASOLID(#923,#926,#924,0.89999999999999991);
#928=IFCSTYLEDITEM(#927,(#25),'Window head wall 23.1');
#929=IFCSHAPEREPRESENTATION(#5,'Body','SweptSolid',(#927));
#930=IFCPRODUCTDEFINITIONSHAPE($,$,(#929));
#931=IFCCARTESIANPOINT((0.,0.,0.));
#932=IFCAXIS2PLACEMENT3D(#931,$,$);
#933=IFCLOCALPLACEMENT($,#932);
#934=IFCWALL('3MPZhe$M19EgoQ_zV013K_',$,'Window head wall 23.1',$,$,#933,#930,$,$);
#935=IFCRELCONTAINEDINSPATIALSTRUCTURE('3sQzQn2c51bQ1AyWqTebmD',$,$,$,(#934),#18);
#936=IFCCARTESIANPOINT((4.9167999999999994,-9.0960799999999988));
#937=IFCCARTESIANPOINT((4.9167999999999994,-9.9214000000000002));
#938=IFCCARTESIANPOINT((5.0572799999999996,-9.9214000000000002));
#939=IFCCARTESIANPOINT((5.0572799999999996,-9.0960799999999988));
#940=IFCCARTESIANPOINT((4.9167999999999994,-9.0960799999999988));
#941=IFCPOLYLINE((#936,#937,#938,#939,#940));
#942=IFCARBITRARYCLOSEDPROFILEDEF(.AREA.,$,#941);
#943=IFCDIRECTION((0.,0.,1.));
#944=IFCCARTESIANPOINT((0.,0.,0.));
#945=IFCAXIS2PLACEMENT3D(#944,#943,$);
#946=IFCEXTRUDEDAREASOLID(#942,#945,#943,3.);
#947=IFCSTYLEDITEM(#946,(#25),'Wall 24.1');
#948=IFCSHAPEREPRESENTATION(#5,'Body','SweptSolid',(#946));
#949=IFCPRODUCTDEFINITIONSHAPE($,$,(#948));
#950=IFCCARTESIANPOINT((0.,0.,0.));
#951=IFCAXIS2PLACEMENT3D(#950,$,$);
#952=IFCLOCALPLACEMENT($,#951);
#953=IFCWALL('1Ss9fjPA14CwshSpEa5E__',$,'Wall 24.1',$,$,#952,#949,$,$);
#954=IFCRELCONTAINEDINSPATIALSTRUCTURE('2ZdFubsFfAUugIvy0Zu$Eq',$,$,$,(#953),#18);
#955=IFCCARTESIANPOINT((5.0572799999999996,-9.0960799999999988));
#956=IFCCARTESIANPOINT((5.0572799999999996,-6.65524));
#957=IFCCARTESIANPOINT((4.9167999999999994,-6.65524));
#958=IFCCARTESIANPOINT((4.9167999999999994,-9.0960799999999988));
#959=IFCCARTESIANPOINT((5.0572799999999996,-9.0960799999999988));
#960=IFCPOLYLINE((#955,#956,#957,#958,#959));
#961=IFCARBITRARYCLOSEDPROFILEDEF(.AREA.,$,#960);
#962=IFCDIRECTION((0.,0.,1.));
#963=IFCCARTESIANPOINT((0.,0.,0.));
#964=IFCAXIS2PLACEMENT3D(#963,#962,$);
#965=IFCEXTRUDEDAREASOLID(#961,#964,#962,3.);
#966=IFCSTYLEDITEM(#965,(#25),'Wall 25.1');
#967=IFCSHAPEREPRESENTATION(#5,'Body','SweptSolid',(#965));
#968=IFCPRODUCTDEFINITIONSHAPE($,$,(#967));
#969=IFCCARTESIANPOINT((0.,0.,0.));
#970=IFCAXIS2PLACEMENT3D(#969,$,$);
#971=IFCLOCALPLACEMENT($,#970);
#972=IFCWALL('2EJEz2SvjCpuToIdGPAZ1D',$,'Wall 25.1',$,$,#971,#968,$,$);
#973=IFCRELCONTAINEDINSPATIALSTRUCTURE('30pL_E3$H08u$dB4KfS5xr',$,$,$,(#972),#18);
#974=IFCCARTESIANPOINT((6.7957199999999993,-9.6755599999999991));
#975=IFCCARTESIANPOINT((6.7957199999999993,-9.0960799999999988));
#976=IFCCARTESIANPOINT((6.65524,-9.0960799999999988));
#977=IFCCARTESIANPOINT((6.65524,-9.6755599999999991));
#978=IFCCARTESIANPOINT((6.7957199999999993,-9.6755599999999991));
#979=IFCPOLYLINE((#974,#975,#976,#977,#978));
#980=IFCARBITRARYCLOSEDPROFILEDEF(.AREA.,$,#979);
#981=IFCDIRECTION((0.,0.,1.));
#982=IFCCARTESIANPOINT((0.,0.,0.));
#983=IFCAXIS2PLACEMENT3D(#982,#981,$);
#984=IFCEXTRUDEDAREASOLID(#980,#983,#981,3.);
#985=IFCSTYLEDITEM(#984,(#25),'Wall 26.1');
#986=IFCSHAPEREPRESENTATION(#5,'Body','SweptSolid',(#984));
#987=IFCPRODUCTDEFINITIONSHAPE($,$,(#986));
#988=IFCCARTESIANPOINT((0.,0.,0.));
#989=IFCAXIS2PLACEMENT3D(#988,$,$);
#990=IFCLOCALPLACEMENT($,#989);
#991=IFCWALL('2h2qnFDdn90uvY6QCi5kdp',$,'Wall 26.1',$,$,#990,#987,$,$);
#992=IFCRELCONTAINEDINSPATIALSTRUCTURE('3MjMrmg_L7UvPKGqtfHYdW',$,$,$,(#991),#18);
#993=IFCCARTESIANPOINT((4.9870399999999995,-9.8511600000000001));
#994=IFCCARTESIANPOINT((4.1441599999999994,-9.8511600000000001));
#995=IFCCARTESIANPOINT((4.1441599999999994,-9.9916400000000003));
#996=IFCCARTESIANPOINT((4.9870399999999995,-9.9916400000000003));
#997=IFCCARTESIANPOINT((4.9870399999999995,-9.8511600000000001));
#998=IFCPOLYLINE((#993,#994,#995,#996,#997));
#999=IFCARBITRARYCLOSEDPROFILEDEF(.AREA.,$,#998);
#1000=IFCDIRECTION((0.,0.,1.));
#1001=IFCCARTESIANPOINT((0.,0.,0.));
#1002=IFCAXIS2PLACEMENT3D(#1001,#1000,$);
#1003=IFCEXTRUDEDAREASOLID(#999,#1002,#1000,3.);
#1004=IFCSTYLEDITEM(#1003,(#25),'Wall 27.1');
#1005=IFCSHAPEREPRESENTATION(#5,'Body','SweptSolid',(#1003));
#1006=IFCPRODUCTDEFINITIONSHAPE($,$,(#1005));
#1007=IFCCARTESIANPOINT((0.,0.,0.));
#1008=IFCAXIS2PLACEMENT3D(#1007,$,$);
#1009=IFCLOCALPLACEMENT($,#1008);
#1010=IFCWALL('1jSgbacwLEUh5s7cjUnz2e',$,'Wall 27.1',$,$,#1009,#1006,$,$);
#1011=IFCRELCONTAINEDINSPATIALSTRUCTURE('3qwy6Qghj9TALyBka6qfRm',$,$,$,(#1010),#18);
#1012=IFCCARTESIANPOINT((2.8798399999999997,-9.8511600000000001));
#1013=IFCCARTESIANPOINT((2.0720799999999997,-9.8511600000000001));
#1014=IFCCARTESIANPOINT((2.0720799999999997,-9.9916400000000003));
#1015=IFCCARTESIANPOINT((2.8798399999999997,-9.9916400000000003));
#1016=IFCCARTESIANPOINT((2.8798399999999997,-9.8511600000000001));
#1017=IFCPOLYLINE((#1012,#1013,#1014,#1015,#1016));
#1018=IFCARBITRARYCLOSEDPROFILEDEF(.AREA.,$,#1017);
#1019=IFCDIRECTION((0.,0.,1.));
#1020=IFCCARTESIANPOINT((0.,0.,0.));
#1021=IFCAXIS2PLACEMENT3D(#1020,#1019,$);
#1022=IFCEXTRUDEDAREASOLID(#1018,#1021,#1019,3.);
#1023=IFCSTYLEDITEM(#1022,(#25),'Wall 27.2');
#1024=IFCSHAPEREPRESENTATION(#5,'Body','SweptSolid',(#1022));
#1025=IFCPRODUCTDEFINITIONSHAPE($,$,(#1024));
#1026=IFCCARTESIANPOINT((0.,0.,0.));
#1027=IFCAXIS2PLACEMENT3D(#1026,$,$);
#1028=IFCLOCALPLACEMENT($,#1027);
#1029=IFCWALL('2B$VJ4xOTDfPMDrPuTrffN',$,'Wall 27.2',$,$,#1028,#1025,$,$);
#1030=IFCRELCONTAINEDINSPATIALSTRUCTURE('0F3TPC_yzEt88RkJxdwR4W',$,$,$,(#1029),#18);
#1031=IFCCARTESIANPOINT((4.1441599999999994,-9.8511600000000001));
#1032=IFCCARTESIANPOINT((2.8798399999999997,-9.8511600000000001));
#1033=IFCCARTESIANPOINT((2.8798399999999997,-9.9916400000000003));
#1034=IFCCARTESIANPOINT((4.1441599999999994,-9.9916400000000003));
#1035=IFCCARTESIANPOINT((4.1441599999999994,-9.8511600000000001));
#1036=IFCPOLYLINE((#1031,#1032,#1033,#1034,#1035));
#1037=IFCARBITRARYCLOSEDPROFILEDEF(.AREA.,$,#1036);
#1038=IFCDIRECTION((0.,0.,1.));
#1039=IFCCARTESIANPOINT((0.,0.,0.));
#1040=IFCAXIS2PLACEMENT3D(#1039,#1038,$);
#1041=IFCEXTRUDEDAREASOLID(#1037,#1040,#1038,0.90000000000000002);
#1042=IFCSTYLEDITEM(#1041,(#25),'Window sill wall 27.1');
#1043=IFCSHAPEREPRESENTATION(#5,'Body','SweptSolid',(#1041));
#1044=IFCPRODUCTDEFINITIONSHAPE($,$,(#1043));
#1045=IFCCARTESIANPOINT((0.,0.,0.));
#1046=IFCAXIS2PLACEMENT3D(#1045,$,$);
#1047=IFCLOCALPLACEMENT($,#1046);
#1048=IFCWALL('0hWB1HME99OB7_Pabtufub',$,'Window sill wall 27.1',$,$,#1047,#1044,$,$);
#1049=IFCRELCONTAINEDINSPATIALSTRUCTURE('0CHFa6Pw1A7w1LcJLXVtrI',$,$,$,(#1048),#18);
#1050=IFCCARTESIANPOINT((4.1441599999999994,-9.8511600000000001));
#1051=IFCCARTESIANPOINT((2.8798399999999997,-9.8511600000000001));
#1052=IFCCARTESIANPOINT((2.8798399999999997,-9.9916400000000003));
#1053=IFCCARTESIANPOINT((4.1441599999999994,-9.9916400000000003));
#1054=IFCCARTESIANPOINT((4.1441599999999994,-9.8511600000000001));
#1055=IFCPOLYLINE((#1050,#1051,#1052,#1053,#1054));
#1056=IFCARBITRARYCLOSEDPROFILEDEF(.AREA.,$,#1055);
#1057=IFCDIRECTION((0.,0.,1.));
#1058=IFCCARTESIANPOINT((0.,0.,2.1000000000000001));
#1059=IFCAXIS2PLACEMENT3D(#1058,#1057,$);
#1060=IFCEXTRUDEDAREASOLID(#1056,#1059,#1057,0.89999999999999991);
#1061=IFCSTYLEDITEM(#1060,(#25),'Window head wall 27.1');
#1062=IFCSHAPEREPRESENTATION(#5,'Body','SweptSolid',(#1060));
#1063=IFCPRODUCTDEFINITIONSHAPE($,$,(#1062));
#1064=IFCCARTESIANPOINT((0.,0.,0.));
#1065=IFCAXIS2PLACEMENT3D(#1064,$,$);
#1066=IFCLOCALPLACEMENT($,#1065);
#1067=IFCWALL('0CjH$f_ND8lxG97GtkCB7q',$,'Window head wall 27.1',$,$,#1066,#1063,$,$);
#1068=IFCRELCONTAINEDINSPATIALSTRUCTURE('1XYsdIaLr4YvCJIsxReMgU',$,$,$,(#1067),#18);
#1069=IFCCARTESIANPOINT((4.9870399999999995,-6.7254800000000001));
#1070=IFCCARTESIANPOINT((5.2328799999999998,-6.7254800000000001));
#1071=IFCCARTESIANPOINT((5.2328799999999998,-6.585));
#1072=IFCCARTESIANPOINT((4.9870399999999995,-6.585));
#1073=IFCCARTESIANPOINT((4.9870399999999995,-6.7254800000000001));
#1074=IFCPOLYLINE((#1069,#1070,#1071,#1072,#1073));
#1075=IFCARBITRARYCLOSEDPROFILEDEF(.AREA.,$,#1074);
#1076=IFCDIRECTION((0.,0.,1.));
#1077=IFCCARTESIANPOINT((0.,0.,0.));
#1078=IFCAXIS2PLACEMENT3D(#1077,#1076,$);
#1079=IFCEXTRUDEDAREASOLID(#1075,#1078,#1076,3.);
#1080=IFCSTYLEDITEM(#1079,(#25),'Wall 28.1');
#1081=IFCSHAPEREPRESENTATION(#5,'Body','SweptSolid',(#1079));
#1082=IFCPRODUCTDEFINITIONSHAPE($,$,(#1081));
#1083=IFCCARTESIANPOINT((0.,0.,0.));
#1084=IFCAXIS2PLACEMENT3D(#1083,$,$);
#1085=IFCLOCALPLACEMENT($,#1084);
#1086=IFCWALL('03N2ax2WH4qeXVuXPcBnYV',$,'Wall 28.1',$,$,#1085,#1082,$,$);
#1087=IFCRELCONTAINEDINSPATIALSTRUCTURE('3QFBqkb55BkR5FyxBkSQze',$,$,$,(#1086),#18);
#1088=IFCCARTESIANPOINT((5.81236,-6.7254800000000001));
#1089=IFCCARTESIANPOINT((7.1820399999999998,-6.7254800000000001));
#1090=IFCCARTESIANPOINT((7.1820399999999998,-6.585));
#1091=IFCCARTESIANPOINT((5.81236,-6.585));
#1092=IFCCARTESIANPOINT((5.81236,-6.7254800000000001));
#1093=IFCPOLYLINE((#1088,#1089,#1090,#1091,#1092));
#1094=IFCARBITRARYCLOSEDPROFILEDEF(.AREA.,$,#1093);
#1095=IFCDIRECTION((0.,0.,1.));
#1096=IFCCARTESIANPOINT((0.,0.,0.));
#1097=IFCAXIS2PLACEMENT3D(#1096,#1095,$);
#1098=IFCEXTRUDEDAREASOLID(#1094,#1097,#1095,3.);
#1099=IFCSTYLEDITEM(#1098,(#25),'Wall 28.2');
#1100=IFCSHAPEREPRESENTATION(#5,'Body','SweptSolid',(#1098));
#1101=IFCPRODUCTDEFINITIONSHAPE($,$,(#1100));
#1102=IFCCARTESIANPOINT((0.,0.,0.));
#1103=IFCAXIS2PLACEMENT3D(#1102,$,$);
#1104=IFCLOCALPLACEMENT($,#1103);
#1105=IFCWALL('2DboaIgOnAPxvnkLqg$bGG',$,'Wall 28.2',$,$,#1104,#1101,$,$);
#1106=IFCRELCONTAINEDINSPATIALSTRUCTURE('2SvSePVWP9JgbVdq3TXVHf',$,$,$,(#1105),#18);
#1107=IFCCARTESIANPOINT((5.0572799999999996,-6.65524));
#1108=IFCCARTESIANPOINT((5.0572799999999996,-6.4796399999999998));
#1109=IFCCARTESIANPOINT((4.9167999999999994,-6.4796399999999998));
#1110=IFCCARTESIANPOINT((4.9167999999999994,-6.65524));
#1111=IFCCARTESIANPOINT((5.0572799999999996,-6.65524));
#1112=IFCPOLYLINE((#1107,#1108,#1109,#1110,#1111));
#1113=IFCARBITRARYCLOSEDPROFILEDEF(.AREA.,$,#1112);
#1114=IFCDIRECTION((0.,0.,1.));
#1115=IFCCARTESIANPOINT((0.,0.,0.));
#1116=IFCAXIS2PLACEMENT3D(#1115,#1114,$);
#1117=IFCEXTRUDEDAREASOLID(#1113,#1116,#1114,3.);
#1118=IFCSTYLEDITEM(#1117,(#25),'Wall 29.1');
#1119=IFCSHAPEREPRESENTATION(#5,'Body','SweptSolid',(#1117));
#1120=IFCPRODUCTDEFINITIONSHAPE($,$,(#1119));
#1121=IFCCARTESIANPOINT((0.,0.,0.));
#1122=IFCAXIS2PLACEMENT3D(#1121,$,$);
#1123=IFCLOCALPLACEMENT($,#1122);
#1124=IFCWALL('0t6aHVCXTF7AB868_GGwHD',$,'Wall 29.1',$,$,#1123,#1120,$,$);
#1125=IFCRELCONTAINEDINSPATIALSTRUCTURE('1UR4TPlyH4fxQ3eyM8_Syh',$,$,$,(#1124),#18);
#1126=IFCCARTESIANPOINT((5.0572799999999996,-5.84748));
#1127=IFCCARTESIANPOINT((5.0572799999999996,-5.6894399999999994));
#1128=IFCCARTESIANPOINT((4.9167999999999994,-5.6894399999999994));
#1129=IFCCARTESIANPOINT((4.9167999999999994,-5.84748));
#1130=IFCCARTESIANPOINT((5.0572799999999996,-5.84748));
#1131=IFCPOLYLINE((#1126,#1127,#1128,#1129,#1130));
#1132=IFCARBITRARYCLOSEDPROFILEDEF(.AREA.,$,#1131);
#1133=IFCDIRECTION((0.,0.,1.));
#1134=IFCCARTESIANPOINT((0.,0.,0.));
#1135=IFCAXIS2PLACEMENT3D(#1134,#1133,$);
#1136=IFCEXTRUDEDAREASOLID(#1132,#1135,#1133,3.);
#1137=IFCSTYLEDITEM(#1136,(#25),'Wall 29.2');
#1138=IFCSHAPEREPRESENTATION(#5,'Body','SweptSolid',(#1136));
#1139=IFCPRODUCTDEFINITIONSHAPE($,$,(#1138));
#1140=IFCCARTESIANPOINT((0.,0.,0.));
#1141=IFCAXIS2PLACEMENT3D(#1140,$,$);
#1142=IFCLOCALPLACEMENT($,#1141);
#1143=IFCWALL('3R0eMyiC5AQ8XUbqHp3LWH',$,'Wall 29.2',$,$,#1142,#1139,$,$);
#1144=IFCRELCONTAINEDINSPATIALSTRUCTURE('1WqiTuzFX2muMWRLkBILsb',$,$,$,(#1143),#18);
#1145=IFCCARTESIANPOINT((6.7254800000000001,-9.1663199999999989));
#1146=IFCCARTESIANPOINT((7.1293599999999993,-9.1663199999999989));
#1147=IFCCARTESIANPOINT((7.1293599999999993,-9.0258399999999988));
#1148=IFCCARTESIANPOINT((6.7254800000000001,-9.0258399999999988));
#1149=IFCCARTESIANPOINT((6.7254800000000001,-9.1663199999999989));
#1150=IFCPOLYLINE((#1145,#1146,#1147,#1148,#1149));
#1151=IFCARBITRARYCLOSEDPROFILEDEF(.AREA.,$,#1150);
#1152=IFCDIRECTION((0.,0.,1.));
#1153=IFCCARTESIANPOINT((0.,0.,0.));
#1154=IFCAXIS2PLACEMENT3D(#1153,#1152,$);
#1155=IFCEXTRUDEDAREASOLID(#1151,#1154,#1152,3.);
#1156=IFCSTYLEDITEM(#1155,(#25),'Wall 30.1');
#1157=IFCSHAPEREPRESENTATION(#5,'Body','SweptSolid',(#1155));
#1158=IFCPRODUCTDEFINITIONSHAPE($,$,(#1157));
#1159=IFCCARTESIANPOINT((0.,0.,0.));
#1160=IFCAXIS2PLACEMENT3D(#1159,$,$);
#1161=IFCLOCALPLACEMENT($,#1160);
#1162=IFCWALL('2itzL9MqPBpANx40FiszYB',$,'Wall 30.1',$,$,#1161,#1158,$,$);
#1163=IFCRELCONTAINEDINSPATIALSTRUCTURE('1JBXz7cEH3c9EnrYKN3UHr',$,$,$,(#1162),#18);
#1164=IFCCARTESIANPOINT((2.1423199999999998,-9.9214000000000002));
#1165=IFCCARTESIANPOINT((2.1423199999999998,-5.6894399999999994));
#1166=IFCCARTESIANPOINT((2.0018400000000001,-5.6894399999999994));
#1167=IFCCARTESIANPOINT((2.0018400000000001,-9.9214000000000002));
#1168=IFCCARTESIANPOINT((2.1423199999999998,-9.9214000000000002));
#1169=IFCPOLYLINE((#1164,#1165,#1166,#1167,#1168));
#1170=IFCARBITRARYCLOSEDPROFILEDEF(.AREA.,$,#1169);
#1171=IFCDIRECTION((0.,0.,1.));
#1172=IFCCARTESIANPOINT((0.,0.,0.));
#1173=IFCAXIS2PLACEMENT3D(#1172,#1171,$);
#1174=IFCEXTRUDEDAREASOLID(#1170,#1173,#1171,3.);
#1175=IFCSTYLEDITEM(#1174,(#25),'Wall 31.1');
#1176=IFCSHAPEREPRESENTATION(#5,'Body','SweptSolid',(#1174));
#1177=IFCPRODUCTDEFINITIONSHAPE($,$,(#1176));
#1178=IFCCARTESIANPOINT((0.,0.,0.));
#1179=IFCAXIS2PLACEMENT3D(#1178,$,$);
#1180=IFCLOCALPLACEMENT($,#1179);
#1181=IFCWALL('1eSEHek3v4reXFEuEmrBKS',$,'Wall 31.1',$,$,#1180,#1177,$,$);
#1182=IFCRELCONTAINEDINSPATIALSTRUCTURE('14DyN$SYDFU8X3LmyHIszW',$,$,$,(#1181),#18);
#1183=IFCCARTESIANPOINT((7.1117999999999997,-6.65524));
#1184=IFCCARTESIANPOINT((7.1117999999999997,-8.6921999999999997));
#1185=IFCCARTESIANPOINT((7.2522799999999998,-8.6921999999999997));
#1186=IFCCARTESIANPOINT((7.2522799999999998,-6.65524));
#1187=IFCCARTESIANPOINT((7.1117999999999997,-6.65524));
#1188=IFCPOLYLINE((#1183,#1184,#1185,#1186,#1187));
#1189=IFCARBITRARYCLOSEDPROFILEDEF(.AREA.,$,#1188);
#1190=IFCDIRECTION((0.,0.,1.));
#1191=IFCCARTESIANPOINT((0.,0.,0.));
#1192=IFCAXIS2PLACEMENT3D(#1191,#1190,$);
#1193=IFCEXTRUDEDAREASOLID(#1189,#1192,#1190,3.);
#1194=IFCSTYLEDITEM(#1193,(#25),'Wall 32.1');
#1195=IFCSHAPEREPRESENTATION(#5,'Body','SweptSolid',(#1193));
#1196=IFCPRODUCTDEFINITIONSHAPE($,$,(#1195));
#1197=IFCCARTESIANPOINT((0.,0.,0.));
#1198=IFCAXIS2PLACEMENT3D(#1197,$,$);
#1199=IFCLOCALPLACEMENT($,#1198);
#1200=IFCWALL('3V_PtPf4XEBB2tmlGORYEk',$,'Wall 32.1',$,$,#1199,#1196,$,$);
#1201=IFCRELCONTAINEDINSPATIALSTRUCTURE('1Xe299AmzEGPnpS3dSIbi$',$,$,$,(#1200),#18);
#1202=IFCCARTESIANPOINT((4.9870399999999995,-5.7596799999999995));
#1203=IFCCARTESIANPOINT((5.5665199999999997,-5.7596799999999995));
#1204=IFCCARTESIANPOINT((5.5665199999999997,-5.6191999999999993));
#1205=IFCCARTESIANPOINT((4.9870399999999995,-5.6191999999999993));
#1206=IFCCARTESIANPOINT((4.9870399999999995,-5.7596799999999995));
#1207=IFCPOLYLINE((#1202,#1203,#1204,#1205,#1206));
#1208=IFCARBITRARYCLOSEDPROFILEDEF(.AREA.,$,#1207);
#1209=IFCDIRECTION((0.,0.,1.));
#1210=IFCCARTESIANPOINT((0.,0.,0.));
#1211=IFCAXIS2PLACEMENT3D(#1210,#1209,$);
#1212=IFCEXTRUDEDAREASOLID(#1208,#1211,#1209,3.);
#1213=IFCSTYLEDITEM(#1212,(#25),'Wall 33.1');
#1214=IFCSHAPEREPRESENTATION(#5,'Body','SweptSolid',(#1212));
#1215=IFCPRODUCTDEFINITIONSHAPE($,$,(#1214));
#1216=IFCCARTESIANPOINT((0.,0.,0.));
#1217=IFCAXIS2PLACEMENT3D(#1216,$,$);
#1218=IFCLOCALPLACEMENT($,#1217);
#1219=IFCWALL('3QTRyOAif2hwmGMWUUjb3_',$,'Wall 33.1',$,$,#1218,#1215,$,$);
#1220=IFCRELCONTAINEDINSPATIALSTRUCTURE('1nKY3qj6fA_BAUinMiIqIV',$,$,$,(#1219),#18);
#1221=IFCCARTESIANPOINT((6.1459999999999999,-5.7596799999999995));
#1222=IFCCARTESIANPOINT((6.3742799999999997,-5.7596799999999995));
#1223=IFCCARTESIANPOINT((6.3742799999999997,-5.6191999999999993));
#1224=IFCCARTESIANPOINT((6.1459999999999999,-5.6191999999999993));
#1225=IFCCARTESIANPOINT((6.1459999999999999,-5.7596799999999995));
#1226=IFCPOLYLINE((#1221,#1222,#1223,#1224,#1225));
#1227=IFCARBITRARYCLOSEDPROFILEDEF(.AREA.,$,#1226);
#1228=IFCDIRECTION((0.,0.,1.));
#1229=IFCCARTESIANPOINT((0.,0.,0.));
#1230=IFCAXIS2PLACEMENT3D(#1229,#1228,$);
#1231=IFCEXTRUDEDAREASOLID(#1227,#1230,#1228,3.);
#1232=IFCSTYLEDITEM(#1231,(#25),'Wall 33.2');
#1233=IFCSHAPEREPRESENTATION(#5,'Body','SweptSolid',(#1231));
#1234=IFCPRODUCTDEFINITIONSHAPE($,$,(#1233));
#1235=IFCCARTESIANPOINT((0.,0.,0.));
#1236=IFCAXIS2PLACEMENT3D(#1235,$,$);
#1237=IFCLOCALPLACEMENT($,#1236);
#1238=IFCWALL('18ghbbaYr8lPHEyjD1rOkN',$,'Wall 33.2',$,$,#1237,#1234,$,$);
#1239=IFCRELCONTAINEDINSPATIALSTRUCTURE('12H9SzW7n0_vUsuBniDBoz',$,$,$,(#1238),#18);
#1240=IFCCARTESIANPOINT((4.9870399999999995,-5.6191999999999993));
#1241=IFCCARTESIANPOINT((2.0720799999999997,-5.6191999999999993));
#1242=IFCCARTESIANPOINT((2.0720799999999997,-5.7596799999999995));
#1243=IFCCARTESIANPOINT((4.9870399999999995,-5.7596799999999995));
#1244=IFCCARTESIANPOINT((4.9870399999999995,-5.6191999999999993));
#1245=IFCPOLYLINE((#1240,#1241,#1242,#1243,#1244));
#1246=IFCARBITRARYCLOSEDPROFILEDEF(.AREA.,$,#1245);
#1247=IFCDIRECTION((0.,0.,1.));
#1248=IFCCARTESIANPOINT((0.,0.,0.));
#1249=IFCAXIS2PLACEMENT3D(#1248,#1247,$);
#1250=IFCEXTRUDEDAREASOLID(#1246,#1249,#1247,3.);
#1251=IFCSTYLEDITEM(#1250,(#25),'Wall 34.1');
#1252=IFCSHAPEREPRESENTATION(#5,'Body','SweptSolid',(#1250));
#1253=IFCPRODUCTDEFINITIONSHAPE($,$,(#1252));
#1254=IFCCARTESIANPOINT((0.,0.,0.));
#1255=IFCAXIS2PLACEMENT3D(#1254,$,$);
#1256=IFCLOCALPLACEMENT($,#1255);
#1257=IFCWALL('2lZy8O_Fb1eeNie8gndk_f',$,'Wall 34.1',$,$,#1256,#1253,$,$);
#1258=IFCRELCONTAINEDINSPATIALSTRUCTURE('1A3HTwpVvA1veXbJnWwPKv',$,$,$,(#1257),#18);
#1259=IFCCARTESIANPOINT((7.1995999999999993,-9.0960799999999988));
#1260=IFCCARTESIANPOINT((7.1995999999999993,-8.6921999999999997));
#1261=IFCCARTESIANPOINT((7.0591200000000001,-8.6921999999999997));
#1262=IFCCARTESIANPOINT((7.0591200000000001,-9.0960799999999988));
#1263=IFCCARTESIANPOINT((7.1995999999999993,-9.0960799999999988));
#1264=IFCPOLYLINE((#1259,#1260,#1261,#1262,#1263));
#1265=IFCARBITRARYCLOSEDPROFILEDEF(.AREA.,$,#1264);
#1266=IFCDIRECTION((0.,0.,1.));
#1267=IFCCARTESIANPOINT((0.,0.,0.));
#1268=IFCAXIS2PLACEMENT3D(#1267,#1266,$);
#1269=IFCEXTRUDEDAREASOLID(#1265,#1268,#1266,3.);
#1270=IFCSTYLEDITEM(#1269,(#25),'Wall 35.1');
#1271=IFCSHAPEREPRESENTATION(#5,'Body','SweptSolid',(#1269));
#1272=IFCPRODUCTDEFINITIONSHAPE($,$,(#1271));
#1273=IFCCARTESIANPOINT((0.,0.,0.));
#1274=IFCAXIS2PLACEMENT3D(#1273,$,$);
#1275=IFCLOCALPLACEMENT($,#1274);
#1276=IFCWALL('0eK7CrXWX7vwHeraEdcTHN',$,'Wall 35.1',$,$,#1275,#1272,$,$);
#1277=IFCRELCONTAINEDINSPATIALSTRUCTURE('3pgWmr5N1AzxlEgiAMF0$q',$,$,$,(#1276),#18);
#1278=IFCCARTESIANPOINT((7.0591200000000001,-9.0960799999999988));
#1279=IFCCARTESIANPOINT((7.0591200000000001,-9.2716799999999999));
#1280=IFCCARTESIANPOINT((7.1995999999999993,-9.2716799999999999));
#1281=IFCCARTESIANPOINT((7.1995999999999993,-9.0960799999999988));
#1282=IFCCARTESIANPOINT((7.0591200000000001,-9.0960799999999988));
#1283=IFCPOLYLINE((#1278,#1279,#1280,#1281,#1282));
#1284=IFCARBITRARYCLOSEDPROFILEDEF(.AREA.,$,#1283);
#1285=IFCDIRECTION((0.,0.,1.));
#1286=IFCCARTESIANPOINT((0.,0.,0.));
#1287=IFCAXIS2PLACEMENT3D(#1286,#1285,$);
#1288=IFCEXTRUDEDAREASOLID(#1284,#1287,#1285,3.);
#1289=IFCSTYLEDITEM(#1288,(#25),'Wall 36.1');
#1290=IFCSHAPEREPRESENTATION(#5,'Body','SweptSolid',(#1288));
#1291=IFCPRODUCTDEFINITIONSHAPE($,$,(#1290));
#1292=IFCCARTESIANPOINT((0.,0.,0.));
#1293=IFCAXIS2PLACEMENT3D(#1292,$,$);
#1294=IFCLOCALPLACEMENT($,#1293);
#1295=IFCWALL('3yYx7WNoD7cgVxXHCPiBoX',$,'Wall 36.1',$,$,#1294,#1291,$,$);
#1296=IFCRELCONTAINEDINSPATIALSTRUCTURE('1HM7_d9rbCLwMv1VQJEB0A',$,$,$,(#1295),#18);
#1297=IFCCARTESIANPOINT((7.0591200000000001,-10.72916));
#1298=IFCCARTESIANPOINT((7.0591200000000001,-10.834519999999999));
#1299=IFCCARTESIANPOINT((7.1995999999999993,-10.834519999999999));
#1300=IFCCARTESIANPOINT((7.1995999999999993,-10.72916));
#1301=IFCCARTESIANPOINT((7.0591200000000001,-10.72916));
#1302=IFCPOLYLINE((#1297,#1298,#1299,#1300,#1301));
#1303=IFCARBITRARYCLOSEDPROFILEDEF(.AREA.,$,#1302);
#1304=IFCDIRECTION((0.,0.,1.));
#1305=IFCCARTESIANPOINT((0.,0.,0.));
#1306=IFCAXIS2PLACEMENT3D(#1305,#1304,$);
#1307=IFCEXTRUDEDAREASOLID(#1303,#1306,#1304,3.);
#1308=IFCSTYLEDITEM(#1307,(#25),'Wall 36.2');
#1309=IFCSHAPEREPRESENTATION(#5,'Body','SweptSolid',(#1307));
#1310=IFCPRODUCTDEFINITIONSHAPE($,$,(#1309));
#1311=IFCCARTESIANPOINT((0.,0.,0.));
#1312=IFCAXIS2PLACEMENT3D(#1311,$,$);
#1313=IFCLOCALPLACEMENT($,#1312);
#1314=IFCWALL('2YKDfhOT9AkuNACnofVQev',$,'Wall 36.2',$,$,#1313,#1310,$,$);
#1315=IFCRELCONTAINEDINSPATIALSTRUCTURE('2AEybuLqL5BBNf32KaJ0Cv',$,$,$,(#1314),#18);
#1316=IFCCARTESIANPOINT((7.0591200000000001,-9.2716799999999999));
#1317=IFCCARTESIANPOINT((7.0591200000000001,-10.72916));
#1318=IFCCARTESIANPOINT((7.1995999999999993,-10.72916));
#1319=IFCCARTESIANPOINT((7.1995999999999993,-9.2716799999999999));
#1320=IFCCARTESIANPOINT((7.0591200000000001,-9.2716799999999999));
#1321=IFCPOLYLINE((#1316,#1317,#1318,#1319,#1320));
#1322=IFCARBITRARYCLOSEDPROFILEDEF(.AREA.,$,#1321);
#1323=IFCDIRECTION((0.,0.,1.));
#1324=IFCCARTESIANPOINT((0.,0.,0.));
#1325=IFCAXIS2PLACEMENT3D(#1324,#1323,$);
#1326=IFCEXTRUDEDAREASOLID(#1322,#1325,#1323,0.90000000000000002);
#1327=IFCSTYLEDITEM(#1326,(#25),'Window sill wall 36.1');
#1328=IFCSHAPEREPRESENTATION(#5,'Body','SweptSolid',(#1326));
#1329=IFCPRODUCTDEFINITIONSHAPE($,$,(#1328));
#1330=IFCCARTESIANPOINT((0.,0.,0.));
#1331=IFCAXIS2PLACEMENT3D(#1330,$,$);
#1332=IFCLOCALPLACEMENT($,#1331);
#1333=IFCWALL('3YCtem9lT589u$zOUxejgW',$,'Window sill wall 36.1',$,$,#1332,#1329,$,$);
#1334=IFCRELCONTAINEDINSPATIALSTRUCTURE('2_6zSeq$942985PlHKPrXv',$,$,$,(#1333),#18);
#1335=IFCCARTESIANPOINT((7.0591200000000001,-9.2716799999999999));
#1336=IFCCARTESIANPOINT((7.0591200000000001,-10.72916));
#1337=IFCCARTESIANPOINT((7.1995999999999993,-10.72916));
#1338=IFCCARTESIANPOINT((7.1995999999999993,-9.2716799999999999));
#1339=IFCCARTESIANPOINT((7.0591200000000001,-9.2716799999999999));
#1340=IFCPOLYLINE((#1335,#1336,#1337,#1338,#1339));
#1341=IFCARBITRARYCLOSEDPROFILEDEF(.AREA.,$,#1340);
#1342=IFCDIRECTION((0.,0.,1.));
#1343=IFCCARTESIANPOINT((0.,0.,2.1000000000000001));
#1344=IFCAXIS2PLACEMENT3D(#1343,#1342,$);
#1345=IFCEXTRUDEDAREASOLID(#1341,#1344,#1342,0.89999999999999991);
#1346=IFCSTYLEDITEM(#1345,(#25),'Window head wall 36.1');
#1347=IFCSHAPEREPRESENTATION(#5,'Body','SweptSolid',(#1345));
#1348=IFCPRODUCTDEFINITIONSHAPE($,$,(#1347));
#1349=IFCCARTESIANPOINT((0.,0.,0.));
#1350=IFCAXIS2PLACEMENT3D(#1349,$,$);
#1351=IFCLOCALPLACEMENT($,#1350);
#1352=IFCWALL('0zdVM3NlnDqv6oBEbhgiIw',$,'Window head wall 36.1',$,$,#1351,#1348,$,$);
#1353=IFCRELCONTAINEDINSPATIALSTRUCTURE('3AV3BTffj85fcs9239fuB0',$,$,$,(#1352),#18);
#1354=IFCCARTESIANPOINT((7.1293599999999993,-8.7624399999999998));
#1355=IFCCARTESIANPOINT((7.1820399999999998,-8.7624399999999998));
#1356=IFCCARTESIANPOINT((7.1820399999999998,-8.6219599999999996));
#1357=IFCCARTESIANPOINT((7.1293599999999993,-8.6219599999999996));
#1358=IFCCARTESIANPOINT((7.1293599999999993,-8.7624399999999998));
#1359=IFCPOLYLINE((#1354,#1355,#1356,#1357,#1358));
#1360=IFCARBITRARYCLOSEDPROFILEDEF(.AREA.,$,#1359);
#1361=IFCDIRECTION((0.,0.,1.));
#1362=IFCCARTESIANPOINT((0.,0.,0.));
#1363=IFCAXIS2PLACEMENT3D(#1362,#1361,$);
#1364=IFCEXTRUDEDAREASOLID(#1360,#1363,#1361,3.);
#1365=IFCSTYLEDITEM(#1364,(#25),'Wall 37.1');
#1366=IFCSHAPEREPRESENTATION(#5,'Body','SweptSolid',(#1364));
#1367=IFCPRODUCTDEFINITIONSHAPE($,$,(#1366));
#1368=IFCCARTESIANPOINT((0.,0.,0.));
#1369=IFCAXIS2PLACEMENT3D(#1368,$,$);
#1370=IFCLOCALPLACEMENT($,#1369);
#1371=IFCWALL('37xIQaxkn8GeBtc74Tnriy',$,'Wall 37.1',$,$,#1370,#1367,$,$);
#1372=IFCRELCONTAINEDINSPATIALSTRUCTURE('0ke56PfdX4pQrOF4iu6Onf',$,$,$,(#1371),#18);
#1373=IFCCARTESIANPOINT((6.3742799999999997,-5.7596799999999995));
#1374=IFCCARTESIANPOINT((6.9537599999999999,-5.7596799999999995));
#1375=IFCCARTESIANPOINT((6.9537599999999999,-5.6191999999999993));
#1376=IFCCARTESIANPOINT((6.3742799999999997,-5.6191999999999993));
#1377=IFCCARTESIANPOINT((6.3742799999999997,-5.7596799999999995));
#1378=IFCPOLYLINE((#1373,#1374,#1375,#1376,#1377));
#1379=IFCARBITRARYCLOSEDPROFILEDEF(.AREA.,$,#1378);
#1380=IFCDIRECTION((0.,0.,1.));
#1381=IFCCARTESIANPOINT((0.,0.,0.));
#1382=IFCAXIS2PLACEMENT3D(#1381,#1380,$);
#1383=IFCEXTRUDEDAREASOLID(#1379,#1382,#1380,3.);
#1384=IFCSTYLEDITEM(#1383,(#25),'Wall 38.1');
#1385=IFCSHAPEREPRESENTATION(#5,'Body','SweptSolid',(#1383));
#1386=IFCPRODUCTDEFINITIONSHAPE($,$,(#1385));
#1387=IFCCARTESIANPOINT((0.,0.,0.));
#1388=IFCAXIS2PLACEMENT3D(#1387,$,$);
#1389=IFCLOCALPLACEMENT($,#1388);
#1390=IFCWALL('2qNWd3lgD0Jxs3haC0ugvA',$,'Wall 38.1',$,$,#1389,#1386,$,$);
#1391=IFCRELCONTAINEDINSPATIALSTRUCTURE('2GuDCj68X9gxs2_yaBA9Bz',$,$,$,(#1390),#18);
#1392=IFCCARTESIANPOINT((7.4630000000000001,-5.7596799999999995));
#1393=IFCCARTESIANPOINT((7.6912799999999999,-5.7596799999999995));
#1394=IFCCARTESIANPOINT((7.6912799999999999,-5.6191999999999993));
#1395=IFCCARTESIANPOINT((7.4630000000000001,-5.6191999999999993));
#1396=IFCCARTESIANPOINT((7.4630000000000001,-5.7596799999999995));
#1397=IFCPOLYLINE((#1392,#1393,#1394,#1395,#1396));
#1398=IFCARBITRARYCLOSEDPROFILEDEF(.AREA.,$,#1397);
#1399=IFCDIRECTION((0.,0.,1.));
#1400=IFCCARTESIANPOINT((0.,0.,0.));
#1401=IFCAXIS2PLACEMENT3D(#1400,#1399,$);
#1402=IFCEXTRUDEDAREASOLID(#1398,#1401,#1399,3.);
#1403=IFCSTYLEDITEM(#1402,(#25),'Wall 38.2');
#1404=IFCSHAPEREPRESENTATION(#5,'Body','SweptSolid',(#1402));
#1405=IFCPRODUCTDEFINITIONSHAPE($,$,(#1404));
#1406=IFCCARTESIANPOINT((0.,0.,0.));
#1407=IFCAXIS2PLACEMENT3D(#1406,$,$);
#1408=IFCLOCALPLACEMENT($,#1407);
#1409=IFCWALL('13_WAkoPjCHh9WAoUaCC50',$,'Wall 38.2',$,$,#1408,#1405,$,$);
#1410=IFCRELCONTAINEDINSPATIALSTRUCTURE('2CRkgZhF9EmeCP68CfWkB5',$,$,$,(#1409),#18);
#1411=IFCCARTESIANPOINT((5.2328799999999998,-6.6727399999999992));
#1412=IFCCARTESIANPOINT((5.81236,-6.6727399999999992));
#1413=IFCCARTESIANPOINT((5.81236,-6.63774));
#1414=IFCCARTESIANPOINT((5.2328799999999998,-6.63774));
#1415=IFCCARTESIANPOINT((5.2328799999999998,-6.6727399999999992));
#1416=IFCPOLYLINE((#1411,#1412,#1413,#1414,#1415));
#1417=IFCARBITRARYCLOSEDPROFILEDEF(.AREA.,$,#1416);
#1418=IFCDIRECTION((0.,0.,1.));
#1419=IFCCARTESIANPOINT((0.,0.,0.));
#1420=IFCAXIS2PLACEMENT3D(#1419,#1418,$);
#1421=IFCEXTRUDEDAREASOLID(#1417,#1420,#1418,2.1000000000000001);
#1422=IFCSTYLEDITEM(#1421,(#29),'Door 1');
#1423=IFCSHAPEREPRESENTATION(#5,'Body','SweptSolid',(#1421));
#1424=IFCPRODUCTDEFINITIONSHAPE($,$,(#1423));
#1425=IFCCARTESIANPOINT((0.,0.,0.));
#1426=IFCAXIS2PLACEMENT3D(#1425,$,$);
#1427=IFCLOCALPLACEMENT($,#1426);
#1428=IFCDOOR('0V$6Zdb2vF090_8wHE05qx',$,'Door 1',$,$,#1427,#1424,$,$,$,$,$,$);
#1429=IFCRELCONTAINEDINSPATIALSTRUCTURE('1kWK5ujt19Pvu5_OfRGtLy',$,$,$,(#1428),#18);
#1430=IFCCARTESIANPOINT((5.0045399999999995,-6.4796399999999998));
#1431=IFCCARTESIANPOINT((5.0045399999999995,-5.84748));
#1432=IFCCARTESIANPOINT((4.9695400000000003,-5.84748));
#1433=IFCCARTESIANPOINT((4.9695400000000003,-6.4796399999999998));
#1434=IFCCARTESIANPOINT((5.0045399999999995,-6.4796399999999998));
#1435=IFCPOLYLINE((#1430,#1431,#1432,#1433,#1434));
#1436=IFCARBITRARYCLOSEDPROFILEDEF(.AREA.,$,#1435);
#1437=IFCDIRECTION((0.,0.,1.));
#1438=IFCCARTESIANPOINT((0.,0.,0.));
#1439=IFCAXIS2PLACEMENT3D(#1438,#1437,$);
#1440=IFCEXTRUDEDAREASOLID(#1436,#1439,#1437,2.1000000000000001);
#1441=IFCSTYLEDITEM(#1440,(#29),'Door 2');
#1442=IFCSHAPEREPRESENTATION(#5,'Body','SweptSolid',(#1440));
#1443=IFCPRODUCTDEFINITIONSHAPE($,$,(#1442));
#1444=IFCCARTESIANPOINT((0.,0.,0.));
#1445=IFCAXIS2PLACEMENT3D(#1444,$,$);
#1446=IFCLOCALPLACEMENT($,#1445);
#1447=IFCDOOR('2yxSNXkzbD3ge_K6oKtgc0',$,'Door 2',$,$,#1446,#1443,$,$,$,$,$,$);
#1448=IFCRELCONTAINEDINSPATIALSTRUCTURE('1OdUrhHDb3FvR0GPWe46NX',$,$,$,(#1447),#18);
#1449=IFCCARTESIANPOINT((6.9537599999999999,-5.7069399999999995));
#1450=IFCCARTESIANPOINT((7.4630000000000001,-5.7069399999999995));
#1451=IFCCARTESIANPOINT((7.4630000000000001,-5.6719400000000002));
#1452=IFCCARTESIANPOINT((6.9537599999999999,-5.6719400000000002));
#1453=IFCCARTESIANPOINT((6.9537599999999999,-5.7069399999999995));
#1454=IFCPOLYLINE((#1449,#1450,#1451,#1452,#1453));
#1455=IFCARBITRARYCLOSEDPROFILEDEF(.AREA.,$,#1454);
#1456=IFCDIRECTION((0.,0.,1.));
#1457=IFCCARTESIANPOINT((0.,0.,0.));
#1458=IFCAXIS2PLACEMENT3D(#1457,#1456,$);
#1459=IFCEXTRUDEDAREASOLID(#1455,#1458,#1456,2.1000000000000001);
#1460=IFCSTYLEDITEM(#1459,(#29),'Door 3');
#1461=IFCSHAPEREPRESENTATION(#5,'Body','SweptSolid',(#1459));
#1462=IFCPRODUCTDEFINITIONSHAPE($,$,(#1461));
#1463=IFCCARTESIANPOINT((0.,0.,0.));
#1464=IFCAXIS2PLACEMENT3D(#1463,$,$);
#1465=IFCLOCALPLACEMENT($,#1464);
#1466=IFCDOOR('17ycVRvVD1CwrdgIZbJsTg',$,'Door 3',$,$,#1465,#1462,$,$,$,$,$,$);
#1467=IFCRELCONTAINEDINSPATIALSTRUCTURE('1zbkvaD6z2Aha_CE$woTds',$,$,$,(#1466),#18);
#1468=IFCCARTESIANPOINT((5.5665199999999997,-5.7069399999999995));
#1469=IFCCARTESIANPOINT((6.1459999999999999,-5.7069399999999995));
#1470=IFCCARTESIANPOINT((6.1459999999999999,-5.6719400000000002));
#1471=IFCCARTESIANPOINT((5.5665199999999997,-5.6719400000000002));
#1472=IFCCARTESIANPOINT((5.5665199999999997,-5.7069399999999995));
#1473=IFCPOLYLINE((#1468,#1469,#1470,#1471,#1472));
#1474=IFCARBITRARYCLOSEDPROFILEDEF(.AREA.,$,#1473);
#1475=IFCDIRECTION((0.,0.,1.));
#1476=IFCCARTESIANPOINT((0.,0.,0.));
#1477=IFCAXIS2PLACEMENT3D(#1476,#1475,$);
#1478=IFCEXTRUDEDAREASOLID(#1474,#1477,#1475,2.1000000000000001);
#1479=IFCSTYLEDITEM(#1478,(#29),'Door 4');
#1480=IFCSHAPEREPRESENTATION(#5,'Body','SweptSolid',(#1478));
#1481=IFCPRODUCTDEFINITIONSHAPE($,$,(#1480));
#1482=IFCCARTESIANPOINT((0.,0.,0.));
#1483=IFCAXIS2PLACEMENT3D(#1482,$,$);
#1484=IFCLOCALPLACEMENT($,#1483);
#1485=IFCDOOR('0CRGT_3hT2WfHZaHwUHVTe',$,'Door 4',$,$,#1484,#1481,$,$,$,$,$,$);
#1486=IFCRELCONTAINEDINSPATIALSTRUCTURE('3Xskklf3r2TBID4mUtzMtb',$,$,$,(#1485),#18);
#1487=IFCCARTESIANPOINT((8.8326799999999999,-2.7921));
#1488=IFCCARTESIANPOINT((7.1995999999999993,-2.7921));
#1489=IFCCARTESIANPOINT((7.1995999999999993,-2.8270999999999997));
#1490=IFCCARTESIANPOINT((8.8326799999999999,-2.8270999999999997));
#1491=IFCCARTESIANPOINT((8.8326799999999999,-2.7921));
#1492=IFCPOLYLINE((#1487,#1488,#1489,#1490,#1491));
#1493=IFCARBITRARYCLOSEDPROFILEDEF(.AREA.,$,#1492);
#1494=IFCDIRECTION((0.,0.,1.));
#1495=IFCCARTESIANPOINT((0.,0.,0.));
#1496=IFCAXIS2PLACEMENT3D(#1495,#1494,$);
#1497=IFCEXTRUDEDAREASOLID(#1493,#1496,#1494,2.1000000000000001);
#1498=IFCSTYLEDITEM(#1497,(#29),'Door 5');
#1499=IFCSHAPEREPRESENTATION(#5,'Body','SweptSolid',(#1497));
#1500=IFCPRODUCTDEFINITIONSHAPE($,$,(#1499));
#1501=IFCCARTESIANPOINT((0.,0.,0.));
#1502=IFCAXIS2PLACEMENT3D(#1501,$,$);
#1503=IFCLOCALPLACEMENT($,#1502);
#1504=IFCDOOR('0OdzW6L_nEGRgElzO97foZ',$,'Door 5',$,$,#1503,#1500,$,$,$,$,$,$);
#1505=IFCRELCONTAINEDINSPATIALSTRUCTURE('34FFHr_lHAZOe8rSeAfiHb',$,$,$,(#1504),#18);
#1506=IFCCARTESIANPOINT((5.84748,-2.6514999999999995));
#1507=IFCCARTESIANPOINT((6.3742799999999997,-2.6514999999999995));
#1508=IFCCARTESIANPOINT((6.3742799999999997,-2.6165000000000003));
#1509=IFCCARTESIANPOINT((5.84748,-2.6165000000000003));
#1510=IFCCARTESIANPOINT((5.84748,-2.6514999999999995));
#1511=IFCPOLYLINE((#1506,#1507,#1508,#1509,#1510));
#1512=IFCARBITRARYCLOSEDPROFILEDEF(.AREA.,$,#1511);
#1513=IFCDIRECTION((0.,0.,1.));
#1514=IFCCARTESIANPOINT((0.,0.,0.));
#1515=IFCAXIS2PLACEMENT3D(#1514,#1513,$);
#1516=IFCEXTRUDEDAREASOLID(#1512,#1515,#1513,2.1000000000000001);
#1517=IFCSTYLEDITEM(#1516,(#29),'Door 6');
#1518=IFCSHAPEREPRESENTATION(#5,'Body','SweptSolid',(#1516));
#1519=IFCPRODUCTDEFINITIONSHAPE($,$,(#1518));
#1520=IFCCARTESIANPOINT((0.,0.,0.));
#1521=IFCAXIS2PLACEMENT3D(#1520,$,$);
#1522=IFCLOCALPLACEMENT($,#1521);
#1523=IFCDOOR('3zL78oj8fDn9Rnt7hGP0E4',$,'Door 6',$,$,#1522,#1519,$,$,$,$,$,$);
#1524=IFCRELCONTAINEDINSPATIALSTRUCTURE('1$JQc4eoj4U9UsZ0wp9pKY',$,$,$,(#1523),#18);
#1525=IFCCARTESIANPOINT((9.2716799999999999,-1.4047400000000001));
#1526=IFCCARTESIANPOINT((10.14968,-1.4047400000000001));
#1527=IFCCARTESIANPOINT((10.14968,-1.36974));
#1528=IFCCARTESIANPOINT((9.2716799999999999,-1.36974));
#1529=IFCCARTESIANPOINT((9.2716799999999999,-1.4047400000000001));
#1530=IFCPOLYLINE((#1525,#1526,#1527,#1528,#1529));
#1531=IFCARBITRARYCLOSEDPROFILEDEF(.AREA.,$,#1530);
#1532=IFCDIRECTION((0.,0.,1.));
#1533=IFCCARTESIANPOINT((0.,0.,0.));
#1534=IFCAXIS2PLACEMENT3D(#1533,#1532,$);
#1535=IFCEXTRUDEDAREASOLID(#1531,#1534,#1532,2.1000000000000001);
#1536=IFCSTYLEDITEM(#1535,(#29),'Door 7');
#1537=IFCSHAPEREPRESENTATION(#5,'Body','SweptSolid',(#1535));
#1538=IFCPRODUCTDEFINITIONSHAPE($,$,(#1537));
#1539=IFCCARTESIANPOINT((0.,0.,0.));
#1540=IFCAXIS2PLACEMENT3D(#1539,$,$);
#1541=IFCLOCALPLACEMENT($,#1540);
#1542=IFCDOOR('3Zm04QDR13LgyIJMOdrsRi',$,'Door 7',$,$,#1541,#1538,$,$,$,$,$,$);
#1543=IFCRELCONTAINEDINSPATIALSTRUCTURE('0HWznfkN1FKPwYTG4hHOF9',$,$,$,(#1542),#18);
#1544=IFCCARTESIANPOINT((5.47872,-9.6930600000000009));
#1545=IFCCARTESIANPOINT((6.62012,-9.6930600000000009));
#1546=IFCCARTESIANPOINT((6.62012,-9.658059999999999));
#1547=IFCCARTESIANPOINT((5.47872,-9.658059999999999));
#1548=IFCCARTESIANPOINT((5.47872,-9.6930600000000009));
#1549=IFCPOLYLINE((#1544,#1545,#1546,#1547,#1548));
#1550=IFCARBITRARYCLOSEDPROFILEDEF(.AREA.,$,#1549);
#1551=IFCDIRECTION((0.,0.,1.));
#1552=IFCCARTESIANPOINT((0.,0.,0.90000000000000002));
#1553=IFCAXIS2PLACEMENT3D(#1552,#1551,$);
#1554=IFCEXTRUDEDAREASOLID(#1550,#1553,#1551,1.2000000000000002);
#1555=IFCSTYLEDITEM(#1554,(#33),'Window 1');
#1556=IFCSHAPEREPRESENTATION(#5,'Body','SweptSolid',(#1554));
#1557=IFCPRODUCTDEFINITIONSHAPE($,$,(#1556));
#1558=IFCCARTESIANPOINT((0.,0.,0.));
#1559=IFCAXIS2PLACEMENT3D(#1558,$,$);
#1560=IFCLOCALPLACEMENT($,#1559);
#1561=IFCWINDOW('1saSytxEvE3hNjIlisbz_8',$,'Window 1',$,$,#1560,#1557,$,$,$,$,$,$);
#1562=IFCRELCONTAINEDINSPATIALSTRUCTURE('0yBKjqzTr8e9YFlVQC3wUp',$,$,$,(#1561),#18);
#1563=IFCCARTESIANPOINT((7.1118600000000001,-9.2716799999999999));
#1564=IFCCARTESIANPOINT((7.1118600000000001,-10.72916));
#1565=IFCCARTESIANPOINT((7.1468599999999993,-10.72916));
#1566=IFCCARTESIANPOINT((7.1468599999999993,-9.2716799999999999));
#1567=IFCCARTESIANPOINT((7.1118600000000001,-9.2716799999999999));
#1568=IFCPOLYLINE((#1563,#1564,#1565,#1566,#1567));
#1569=IFCARBITRARYCLOSEDPROFILEDEF(.AREA.,$,#1568);
#1570=IFCDIRECTION((0.,0.,1.));
#1571=IFCCARTESIANPOINT((0.,0.,0.90000000000000002));
#1572=IFCAXIS2PLACEMENT3D(#1571,#1570,$);
#1573=IFCEXTRUDEDAREASOLID(#1569,#1572,#1570,1.2000000000000002);
#1574=IFCSTYLEDITEM(#1573,(#33),'Window 2');
#1575=IFCSHAPEREPRESENTATION(#5,'Body','SweptSolid',(#1573));
#1576=IFCPRODUCTDEFINITIONSHAPE($,$,(#1575));
#1577=IFCCARTESIANPOINT((0.,0.,0.));
#1578=IFCAXIS2PLACEMENT3D(#1577,$,$);
#1579=IFCLOCALPLACEMENT($,#1578);
#1580=IFCWINDOW('1cRNJxP695PuHAbeIGWBAJ',$,'Window 2',$,$,#1579,#1576,$,$,$,$,$,$);
#1581=IFCRELCONTAINEDINSPATIALSTRUCTURE('34MOGMEeH398Poi2L0JpBz',$,$,$,(#1580),#18);
#1582=IFCCARTESIANPOINT((4.1441599999999994,-9.9038999999999984));
#1583=IFCCARTESIANPOINT((2.8798399999999997,-9.9038999999999984));
#1584=IFCCARTESIANPOINT((2.8798399999999997,-9.9389000000000003));
#1585=IFCCARTESIANPOINT((4.1441599999999994,-9.9389000000000003));
#1586=IFCCARTESIANPOINT((4.1441599999999994,-9.9038999999999984));
#1587=IFCPOLYLINE((#1582,#1583,#1584,#1585,#1586));
#1588=IFCARBITRARYCLOSEDPROFILEDEF(.AREA.,$,#1587);
#1589=IFCDIRECTION((0.,0.,1.));
#1590=IFCCARTESIANPOINT((0.,0.,0.90000000000000002));
#1591=IFCAXIS2PLACEMENT3D(#1590,#1589,$);
#1592=IFCEXTRUDEDAREASOLID(#1588,#1591,#1589,1.2000000000000002);
#1593=IFCSTYLEDITEM(#1592,(#33),'Window 3');
#1594=IFCSHAPEREPRESENTATION(#5,'Body','SweptSolid',(#1592));
#1595=IFCPRODUCTDEFINITIONSHAPE($,$,(#1594));
#1596=IFCCARTESIANPOINT((0.,0.,0.));
#1597=IFCAXIS2PLACEMENT3D(#1596,$,$);
#1598=IFCLOCALPLACEMENT($,#1597);
#1599=IFCWINDOW('3hOWkaEEXB9QEUgMDqNIU6',$,'Window 3',$,$,#1598,#1595,$,$,$,$,$,$);
#1600=IFCRELCONTAINEDINSPATIALSTRUCTURE('13H_rw6NbAh9ZP0oKr1znM',$,$,$,(#1599),#18);
#1601=IFCCARTESIANPOINT((10.272599999999999,-10.817019999999999));
#1602=IFCCARTESIANPOINT((7.1469199999999997,-10.817019999999999));
#1603=IFCCARTESIANPOINT((7.1469199999999997,-10.85202));
#1604=IFCCARTESIANPOINT((10.272599999999999,-10.85202));
#1605=IFCCARTESIANPOINT((10.272599999999999,-10.817019999999999));
#1606=IFCPOLYLINE((#1601,#1602,#1603,#1604,#1605));
#1607=IFCARBITRARYCLOSEDPROFILEDEF(.AREA.,$,#1606);
#1608=IFCDIRECTION((0.,0.,1.));
#1609=IFCCARTESIANPOINT((0.,0.,0.90000000000000002));
#1610=IFCAXIS2PLACEMENT3D(#1609,#1608,$);
#1611=IFCEXTRUDEDAREASOLID(#1607,#1610,#1608,1.2000000000000002);
#1612=IFCSTYLEDITEM(#1611,(#33),'Window 4');
#1613=IFCSHAPEREPRESENTATION(#5,'Body','SweptSolid',(#1611));
#1614=IFCPRODUCTDEFINITIONSHAPE($,$,(#1613));
#1615=IFCCARTESIANPOINT((0.,0.,0.));
#1616=IFCAXIS2PLACEMENT3D(#1615,$,$);
#1617=IFCLOCALPLACEMENT($,#1616);
#1618=IFCWINDOW('1EYFjYSIjEhPBbLoM4$1GE',$,'Window 4',$,$,#1617,#1614,$,$,$,$,$,$);
#1619=IFCRELCONTAINEDINSPATIALSTRUCTURE('2iI_PeH215ze71C1THKXo7',$,$,$,(#1618),#18);
#1620=IFCCARTESIANPOINT((6.8132799999999998,-3.7578999999999998));
#1621=IFCCARTESIANPOINT((6.4269599999999993,-3.7578999999999998));
#1622=IFCCARTESIANPOINT((6.4269599999999993,-3.7928999999999995));
#1623=IFCCARTESIANPOINT((6.8132799999999998,-3.7928999999999995));
#1624=IFCCARTESIANPOINT((6.8132799999999998,-3.7578999999999998));
#1625=IFCPOLYLINE((#1620,#1621,#1622,#1623,#1624));
#1626=IFCARBITRARYCLOSEDPROFILEDEF(.AREA.,$,#1625);
#1627=IFCDIRECTION((0.,0.,1.));
#1628=IFCCARTESIANPOINT((0.,0.,0.90000000000000002));
#1629=IFCAXIS2PLACEMENT3D(#1628,#1627,$);
#1630=IFCEXTRUDEDAREASOLID(#1626,#1629,#1627,1.2000000000000002);
#1631=IFCSTYLEDITEM(#1630,(#33),'Window 5');
#1632=IFCSHAPEREPRESENTATION(#5,'Body','SweptSolid',(#1630));
#1633=IFCPRODUCTDEFINITIONSHAPE($,$,(#1632));
#1634=IFCCARTESIANPOINT((0.,0.,0.));
#1635=IFCAXIS2PLACEMENT3D(#1634,$,$);
#1636=IFCLOCALPLACEMENT($,#1635);
#1637=IFCWINDOW('0x5tawRYX6F9NDT9vSyocQ',$,'Window 5',$,$,#1636,#1633,$,$,$,$,$,$);
#1638=IFCRELCONTAINEDINSPATIALSTRUCTURE('1rV6TAH$r7K8$sCDK6YW5J',$,$,$,(#1637),#18);
#1639=IFCCARTESIANPOINT((2.0545799999999996,-3.5997999999999997));
#1640=IFCCARTESIANPOINT((2.0545799999999996,-5.6894399999999994));
#1641=IFCCARTESIANPOINT((2.0895799999999998,-5.6894399999999994));
#1642=IFCCARTESIANPOINT((2.0895799999999998,-3.5997999999999997));
#1643=IFCCARTESIANPOINT((2.0545799999999996,-3.5997999999999997));
#1644=IFCPOLYLINE((#1639,#1640,#1641,#1642,#1643));
#1645=IFCARBITRARYCLOSEDPROFILEDEF(.AREA.,$,#1644);
#1646=IFCDIRECTION((0.,0.,1.));
#1647=IFCCARTESIANPOINT((0.,0.,0.90000000000000002));
#1648=IFCAXIS2PLACEMENT3D(#1647,#1646,$);
#1649=IFCEXTRUDEDAREASOLID(#1645,#1648,#1646,1.2000000000000002);
#1650=IFCSTYLEDITEM(#1649,(#33),'Window 6');
#1651=IFCSHAPEREPRESENTATION(#5,'Body','SweptSolid',(#1649));
#1652=IFCPRODUCTDEFINITIONSHAPE($,$,(#1651));
#1653=IFCCARTESIANPOINT((0.,0.,0.));
#1654=IFCAXIS2PLACEMENT3D(#1653,$,$);
#1655=IFCLOCALPLACEMENT($,#1654);
#1656=IFCWINDOW('2B8unzU4XDBfjA46uDPJGy',$,'Window 6',$,$,#1655,#1652,$,$,$,$,$,$);
#1657=IFCRELCONTAINEDINSPATIALSTRUCTURE('2NW2KQ8bzCm8VIVA2eFQcO',$,$,$,(#1656),#18);
#1658=IFCCARTESIANPOINT((5.5665800000000001,-2.9851999999999999));
#1659=IFCCARTESIANPOINT((5.5665800000000001,-3.45932));
#1660=IFCCARTESIANPOINT((5.6015799999999993,-3.45932));
#1661=IFCCARTESIANPOINT((5.6015799999999993,-2.9851999999999999));
#1662=IFCCARTESIANPOINT((5.5665800000000001,-2.9851999999999999));
#1663=IFCPOLYLINE((#1658,#1659,#1660,#1661,#1662));
#1664=IFCARBITRARYCLOSEDPROFILEDEF(.AREA.,$,#1663);
#1665=IFCDIRECTION((0.,0.,1.));
#1666=IFCCARTESIANPOINT((0.,0.,0.90000000000000002));
#1667=IFCAXIS2PLACEMENT3D(#1666,#1665,$);
#1668=IFCEXTRUDEDAREASOLID(#1664,#1667,#1665,1.2000000000000002);
#1669=IFCSTYLEDITEM(#1668,(#33),'Window 7');
#1670=IFCSHAPEREPRESENTATION(#5,'Body','SweptSolid',(#1668));
#1671=IFCPRODUCTDEFINITIONSHAPE($,$,(#1670));
#1672=IFCCARTESIANPOINT((0.,0.,0.));
#1673=IFCAXIS2PLACEMENT3D(#1672,$,$);
#1674=IFCLOCALPLACEMENT($,#1673);
#1675=IFCWINDOW('3HXTRsK0b3cRp6OuKgdUZw',$,'Window 7',$,$,#1674,#1671,$,$,$,$,$,$);
#1676=IFCRELCONTAINEDINSPATIALSTRUCTURE('0TnovzC9r08hkjPSgpXZVH',$,$,$,(#1675),#18);
#1677=IFCCARTESIANPOINT((8.9029799999999994,-2.5286399999999998));
#1678=IFCCARTESIANPOINT((8.9029799999999994,-2.75692));
#1679=IFCCARTESIANPOINT((8.9379799999999996,-2.75692));
#1680=IFCCARTESIANPOINT((8.9379799999999996,-2.5286399999999998));
#1681=IFCCARTESIANPOINT((8.9029799999999994,-2.5286399999999998));
#1682=IFCPOLYLINE((#1677,#1678,#1679,#1680,#1681));
#1683=IFCARBITRARYCLOSEDPROFILEDEF(.AREA.,$,#1682);
#1684=IFCDIRECTION((0.,0.,1.));
#1685=IFCCARTESIANPOINT((0.,0.,0.90000000000000002));
#1686=IFCAXIS2PLACEMENT3D(#1685,#1684,$);
#1687=IFCEXTRUDEDAREASOLID(#1683,#1686,#1684,1.2000000000000002);
#1688=IFCSTYLEDITEM(#1687,(#33),'Window 8');
#1689=IFCSHAPEREPRESENTATION(#5,'Body','SweptSolid',(#1687));
#1690=IFCPRODUCTDEFINITIONSHAPE($,$,(#1689));
#1691=IFCCARTESIANPOINT((0.,0.,0.));
#1692=IFCAXIS2PLACEMENT3D(#1691,$,$);
#1693=IFCLOCALPLACEMENT($,#1692);
#1694=IFCWINDOW('34lyDK9oP7NeD0RoaH$1H$',$,'Window 8',$,$,#1693,#1690,$,$,$,$,$,$);
#1695=IFCRELCONTAINEDINSPATIALSTRUCTURE('256WrJHqH3OvBPE8G2zElw',$,$,$,(#1694),#18);
#1696=IFCCARTESIANPOINT((5.5665800000000001,-1.4925999999999999));
#1697=IFCCARTESIANPOINT((5.5665800000000001,-2.6164399999999999));
#1698=IFCCARTESIANPOINT((5.6015799999999993,-2.6164399999999999));
#1699=IFCCARTESIANPOINT((5.6015799999999993,-1.4925999999999999));
#1700=IFCCARTESIANPOINT((5.5665800000000001,-1.4925999999999999));
#1701=IFCPOLYLINE((#1696,#1697,#1698,#1699,#1700));
#1702=IFCARBITRARYCLOSEDPROFILEDEF(.AREA.,$,#1701);
#1703=IFCDIRECTION((0.,0.,1.));
#1704=IFCCARTESIANPOINT((0.,0.,0.90000000000000002));
#1705=IFCAXIS2PLACEMENT3D(#1704,#1703,$);
#1706=IFCEXTRUDEDAREASOLID(#1702,#1705,#1703,1.2000000000000002);
#1707=IFCSTYLEDITEM(#1706,(#33),'Window 9');
#1708=IFCSHAPEREPRESENTATION(#5,'Body','SweptSolid',(#1706));
#1709=IFCPRODUCTDEFINITIONSHAPE($,$,(#1708));
#1710=IFCCARTESIANPOINT((0.,0.,0.));
#1711=IFCAXIS2PLACEMENT3D(#1710,$,$);
#1712=IFCLOCALPLACEMENT($,#1711);
#1713=IFCWINDOW('079gJd5$P5MgTouKjMiCKI',$,'Window 9',$,$,#1712,#1709,$,$,$,$,$,$);
#1714=IFCRELCONTAINEDINSPATIALSTRUCTURE('3o3u29htP4Lw5APWMkLluP',$,$,$,(#1713),#18);
ENDSEC;
END-ISO-10303-21;
